<svg xmlns="http://www.w3.org/2000/svg" xmlns:xlink="http://www.w3.org/1999/xlink" width="116.36" height="116.36" viewBox="0 0 116.36 116.36">
  <defs>
    <filter id="Trazado_920741" x="0" y="0" width="116.36" height="116.36" filterUnits="userSpaceOnUse">
      <feOffset dy="3" input="SourceAlpha"/>
      <feGaussianBlur stdDeviation="3" result="blur"/>
      <feFlood flood-opacity="0.161"/>
      <feComposite operator="in" in2="blur"/>
      <feComposite in="SourceGraphic"/>
    </filter>
  </defs>
  <g id="Grupo_1142905" data-name="Grupo 1142905" transform="translate(-1115.22 -1875.091)">
    <g transform="matrix(1, 0, 0, 1, 1115.22, 1875.09)" filter="url(#Trazado_920741)">
      <g id="Trazado_920741-2" data-name="Trazado 920741" transform="translate(9 6)" fill="#fff">
        <path d="M 49.18003845214844 96.35993957519531 C 42.80988311767578 96.35993957519531 36.63134002685547 95.11278533935547 30.8160400390625 92.65312957763672 C 25.19811058044434 90.27693939208984 20.15226745605469 86.87480926513672 15.81869602203369 82.54124450683594 C 11.4851245880127 78.20767211914062 8.082996368408203 73.16184234619141 5.70681095123291 67.54393005371094 C 3.247153520584106 61.72864151000977 1.999996542930603 55.55011367797852 1.999996542930603 49.17996978759766 C 1.999996542930603 42.8098258972168 3.247153520584106 36.63131332397461 5.70681095123291 30.81601333618164 C 8.082982063293457 25.19809913635254 11.48511123657227 20.15226936340332 15.81868267059326 15.81869792938232 C 20.15225410461426 11.48512649536133 25.19808197021484 8.082998275756836 30.81599617004395 5.706812858581543 C 36.63129806518555 3.247155427932739 42.8098258972168 1.999998331069946 49.17995452880859 1.999998331069946 C 55.55010986328125 1.999998331069946 61.72865295410156 3.247155427932739 67.54395294189453 5.706812858581543 C 73.16188049316406 8.082998275756836 78.20772552490234 11.48512649536133 82.54129791259766 15.81869792938232 C 86.87487030029297 20.15226936340332 90.27699279785156 25.19809913635254 92.65318298339844 30.81601333618164 C 95.11283874511719 36.63129806518555 96.35999298095703 42.8098258972168 96.35999298095703 49.17996978759766 C 96.35999298095703 55.55011367797852 95.11283874511719 61.7286262512207 92.65318298339844 67.54393005371094 C 90.27700805664062 73.16184234619141 86.87488555908203 78.20767211914062 82.54131317138672 82.54124450683594 C 78.20774078369141 86.87480926513672 73.16191101074219 90.27693939208984 67.54399871826172 92.65312957763672 C 61.72869491577148 95.11278533935547 55.55016708374023 96.35993957519531 49.18003845214844 96.35993957519531 Z" stroke="none"/>
        <path d="M 49.17996215820312 4 C 43.07894515991211 4 37.16254806518555 5.194000244140625 31.59511566162109 7.548820495605469 C 26.215576171875 9.824172973632812 21.38344573974609 13.08236694335938 17.23289489746094 17.23290252685547 C 13.08236694335938 21.38345336914062 9.824165344238281 26.21558380126953 7.548812866210938 31.59512329101562 C 5.194000244140625 37.16255187988281 4 43.07895278930664 4 49.17996978759766 C 4 55.28098678588867 5.194000244140625 61.1973876953125 7.548812866210938 66.76481628417969 C 9.824165344238281 72.14435577392578 13.08236694335938 76.97648620605469 17.23291015625 81.12703704833984 C 21.38346099853516 85.27757263183594 26.21561431884766 88.5357666015625 31.59514617919922 90.81111907958984 C 37.16257858276367 93.16593933105469 43.07901382446289 94.35993957519531 49.18004608154297 94.35993957519531 C 55.28106307983398 94.35993957519531 61.19746398925781 93.16593933105469 66.764892578125 90.81111907958984 C 72.1444091796875 88.5357666015625 76.97654724121094 85.27757263183594 81.12709808349609 81.12703704833984 C 85.27763366699219 76.97648620605469 88.53582763671875 72.14435577392578 90.81118011474609 66.76481628417969 C 93.16600036621094 61.1973876953125 94.35999298095703 55.28098678588867 94.35999298095703 49.17996978759766 C 94.35999298095703 43.07895278930664 93.16600036621094 37.16255187988281 90.81118011474609 31.59512329101562 C 88.53582763671875 26.21558380126953 85.27763366699219 21.38345336914062 81.1270751953125 17.23290252685547 C 76.97654724121094 13.08236694335938 72.14439392089844 9.824172973632812 66.76486206054688 7.548820495605469 C 61.19741439819336 5.194000244140625 55.28099822998047 4 49.17996215820312 4 M 49.17996215820312 0 L 49.18004608154297 0 C 76.34137725830078 0 98.35999298095703 22.01862335205078 98.35999298095703 49.17996978759766 C 98.35999298095703 76.34132385253906 76.34137725830078 98.35993957519531 49.18004608154297 98.35993957519531 L 49.17996215820312 98.35993957519531 C 22.01861572265625 98.35993957519531 0 76.34132385253906 0 49.17996978759766 C 0 22.01862335205078 22.01861572265625 0 49.17996215820312 0 Z" stroke="none" fill="#f3d02c"/>
      </g>
    </g>
    <g id="_x37_82-Dollar_x2C__Growth_x2C__Investment" transform="translate(1144.297 1900.505)">
      <path id="Trazado_922177" data-name="Trazado 922177" d="M190.583,280A10.583,10.583,0,1,1,180,290.583,10.583,10.583,0,0,1,190.583,280Z" transform="translate(-162.803 -246.929)" fill="#ffd400"/>
      <path id="Trazado_922178" data-name="Trazado 922178" d="M62.646,280A2.646,2.646,0,1,1,60,282.646,2.645,2.645,0,0,1,62.646,280Z" transform="translate(-58.677 -246.929)" fill="#5cbeff"/>
      <circle id="Elipse_11691" data-name="Elipse 11691" cx="3.783" cy="3.783" r="3.783" transform="translate(48.965 26.927)" fill="#5cbeff"/>
      <path id="Trazado_922179" data-name="Trazado 922179" d="M260.058,92.18c-.021-.128-.04-.257-.058-.384V85.913a14.9,14.9,0,0,1,4.539-8.78c3.984-3.679,9.662-4.679,15.365-3.273.95,5.8-.5,11.377-4.481,15.057S265.762,93.6,260.06,92.19C260.06,92.186,260.058,92.184,260.058,92.18Z" transform="translate(-232.22 -67.53)" fill="#19ab5c"/>
      <path id="Trazado_922180" data-name="Trazado 922180" d="M127.6,85.913V91.8c-.019.127-.037.255-.058.384,0,0,0,.007,0,.011-5.7,1.406-11.381.406-15.365-3.273s-5.429-9.26-4.479-15.057c5.7-1.406,11.381-.406,15.365,3.273A14.9,14.9,0,0,1,127.6,85.913Z" transform="translate(-99.818 -67.53)" fill="#07cc66"/>
      <path id="Trazado_922181" data-name="Trazado 922181" d="M451.323,150A1.323,1.323,0,1,1,450,151.323,1.323,1.323,0,0,1,451.323,150Z" transform="translate(-397.086 -134.126)"/>
      <path id="Trazado_922182" data-name="Trazado 922182" d="M411.323,330A1.323,1.323,0,1,1,410,331.323,1.323,1.323,0,0,1,411.323,330Z" transform="translate(-362.377 -290.314)"/>
      <path id="Trazado_922183" data-name="Trazado 922183" d="M401.323,430A1.323,1.323,0,1,1,400,431.323,1.323,1.323,0,0,1,401.323,430Z" transform="translate(-353.7 -377.086)"/>
      <path id="Trazado_922184" data-name="Trazado 922184" d="M351.323,118.17A1.323,1.323,0,1,1,350,119.493,1.323,1.323,0,0,1,351.323,118.17Z" transform="translate(-310.314 -106.506)"/>
      <path id="Trazado_922185" data-name="Trazado 922185" d="M228.335,306.558v-2.07q-1.179.1-1.177.976a.815.815,0,0,0,.295.664A2.644,2.644,0,0,0,228.335,306.558Zm.791,3.13v2.019q1.3-.052,1.3-.892a.781.781,0,0,0-.353-.681A3.849,3.849,0,0,0,229.126,309.688Zm0-5.183v2.289l.538.135a14.379,14.379,0,0,1,1.548.513,4.154,4.154,0,0,1,1.169.689,2.782,2.782,0,0,1,.739,1,3.462,3.462,0,0,1,.262,1.413,3.609,3.609,0,0,1-.337,1.632,3.083,3.083,0,0,1-.9,1.1,3.99,3.99,0,0,1-1.3.648,6.289,6.289,0,0,1-1.54.253v1.951h-1.16v-1.969a10.22,10.22,0,0,1-2.3-.471,8.28,8.28,0,0,1-2.045-.976l1.212-2.406a1.8,1.8,0,0,0,.362.278,5.779,5.779,0,0,0,.749.4,10.48,10.48,0,0,0,1.025.4,6.487,6.487,0,0,0,1.179.278v-2.238l-.808-.235a10,10,0,0,1-1.43-.546,3.8,3.8,0,0,1-1-.681,2.468,2.468,0,0,1-.589-.893,3.263,3.263,0,0,1-.193-1.177,3.784,3.784,0,0,1,.3-1.556,3.585,3.585,0,0,1,.816-1.169,3.745,3.745,0,0,1,1.21-.766,5.673,5.673,0,0,1,1.507-.362v-1.7h1.16v1.7a7.228,7.228,0,0,1,2.053.488,13.553,13.553,0,0,1,1.665.791l-1.21,2.287a1.32,1.32,0,0,0-.295-.218,6.1,6.1,0,0,0-.622-.328,8.632,8.632,0,0,0-.841-.336,5.024,5.024,0,0,0-.934-.228Z" transform="translate(-200.816 -264.587)"/>
      <path id="Trazado_922186" data-name="Trazado 922186" d="M201.323,30A1.323,1.323,0,1,1,200,31.323,1.323,1.323,0,0,1,201.323,30Z" transform="translate(-180.157 -30)"/>
      <path id="Trazado_922187" data-name="Trazado 922187" d="M121.323,260A1.323,1.323,0,1,1,120,261.323,1.323,1.323,0,0,1,121.323,260Z" transform="translate(-110.74 -229.574)"/>
      <path id="Trazado_922188" data-name="Trazado 922188" d="M81.323,430A1.323,1.323,0,1,1,80,431.323,1.323,1.323,0,0,1,81.323,430Z" transform="translate(-76.031 -377.086)"/>
      <path id="Trazado_922189" data-name="Trazado 922189" d="M61.323,160A1.323,1.323,0,1,1,60,161.323,1.323,1.323,0,0,1,61.323,160Z" transform="translate(-58.677 -142.803)"/>
      <path id="Trazado_922190" data-name="Trazado 922190" d="M251.323,69.95A1.323,1.323,0,0,1,250,68.628V54.653a1.323,1.323,0,0,1,2.646,0V68.628A1.323,1.323,0,0,1,251.323,69.95Z" transform="translate(-223.543 -50.244)"/>
      <path id="Trazado_922191" data-name="Trazado 922191" d="M251.323,214.649A1.323,1.323,0,0,1,250,213.326v-8.563a1.323,1.323,0,0,1,2.646,0v8.563A1.323,1.323,0,0,1,251.323,214.649Z" transform="translate(-223.543 -180.496)"/>
      <path id="Trazado_922192" data-name="Trazado 922192" d="M251.674,151.979a1.323,1.323,0,0,1-.875-2.315l0,0,9.537-8.685a1.323,1.323,0,0,1,1.781,1.956l-9.544,8.692-.016.014-.012.011A1.319,1.319,0,0,1,251.674,151.979Z" transform="translate(-223.847 -125.996)"/>
      <path id="Trazado_922193" data-name="Trazado 922193" d="M256.257,85.438a21.7,21.7,0,0,1-5.191-.65,1.323,1.323,0,0,1-.994-1.107c-.02-.124-.038-.248-.056-.371a1.324,1.324,0,0,1,2.415-.924c5.215,1.087,10.072-.035,13.419-3.126,3.318-3.065,4.825-7.764,4.2-12.994-5.164-1.04-9.968.089-13.287,3.154a13.612,13.612,0,0,0-4.129,8.013,1.323,1.323,0,0,1-2.614-.41,16.229,16.229,0,0,1,4.948-9.546c4.169-3.849,10.212-5.156,16.579-3.585a1.323,1.323,0,0,1,.989,1.07c1.061,6.473-.721,12.393-4.888,16.242a16.52,16.52,0,0,1-11.387,4.235Z" transform="translate(-223.543 -58.843)"/>
      <path id="Trazado_922194" data-name="Trazado 922194" d="M188.288,151.979a1.318,1.318,0,0,1-.874-.331l-.012-.011-.016-.014-9.544-8.692a1.323,1.323,0,1,1,1.781-1.956l9.54,8.689a1.323,1.323,0,0,1-.875,2.315Z" transform="translate(-160.555 -125.996)"/>
      <path id="Trazado_922195" data-name="Trazado 922195" d="M113.981,85.446a16.439,16.439,0,0,1-11.389-4.233c-4.167-3.85-5.948-9.77-4.887-16.243a1.323,1.323,0,0,1,.989-1.07,21.722,21.722,0,0,1,5.19-.648,16.439,16.439,0,0,1,11.389,4.233,16.228,16.228,0,0,1,4.948,9.547,1.315,1.315,0,0,1,.016.205v5.883a1.328,1.328,0,0,1-.014.19c-.019.132-.037.257-.058.381a1.323,1.323,0,0,1-.994,1.107A21.722,21.722,0,0,1,113.981,85.446Zm-13.79-19.171c-.628,5.23.879,9.929,4.2,12.994a13.84,13.84,0,0,0,9.594,3.531,18.707,18.707,0,0,0,3.61-.361v-5.1a13.59,13.59,0,0,0-4.114-7.913,13.84,13.84,0,0,0-9.594-3.531,18.753,18.753,0,0,0-3.692.378Z" transform="translate(-91.134 -58.852)"/>
      <path id="Trazado_922196" data-name="Trazado 922196" d="M181.906,293.811a11.906,11.906,0,1,1,11.906-11.906A11.919,11.919,0,0,1,181.906,293.811Zm0-21.166a9.26,9.26,0,1,0,9.26,9.26A9.27,9.27,0,0,0,181.906,272.646Z" transform="translate(-154.126 -238.251)"/>
      <path id="Trazado_922197" data-name="Trazado 922197" d="M265.874,257.2a1.323,1.323,0,0,1-1.323-1.323,13.243,13.243,0,0,0-13.229-13.229,1.323,1.323,0,1,1,0-2.646A15.892,15.892,0,0,1,267.2,255.874,1.323,1.323,0,0,1,265.874,257.2Z" transform="translate(-223.543 -212.22)"/>
      <path id="Trazado_922198" data-name="Trazado 922198" d="M155.874,367.2A15.892,15.892,0,0,1,140,351.323a1.323,1.323,0,1,1,2.646,0,13.243,13.243,0,0,0,13.229,13.229,1.323,1.323,0,1,1,0,2.646Z" transform="translate(-128.094 -307.669)"/>
      <path id="Trazado_922199" data-name="Trazado 922199" d="M331.323,364.111A1.323,1.323,0,0,1,330,362.788V351.323a1.323,1.323,0,1,1,2.646,0v11.465A1.323,1.323,0,0,1,331.323,364.111Z" transform="translate(-292.96 -307.669)"/>
      <path id="Trazado_922200" data-name="Trazado 922200" d="M171.323,277.441A1.323,1.323,0,0,1,170,276.118V264.653a1.323,1.323,0,0,1,2.646,0v11.465A1.323,1.323,0,0,1,171.323,277.441Z" transform="translate(-154.126 -232.464)"/>
      <path id="Trazado_922201" data-name="Trazado 922201" d="M53.969,277.937a3.969,3.969,0,1,1,3.969-3.969A3.973,3.973,0,0,1,53.969,277.937Zm0-5.291a1.323,1.323,0,1,0,1.323,1.323A1.324,1.324,0,0,0,53.969,272.646Z" transform="translate(-50 -238.251)"/>
      <path id="Trazado_922202" data-name="Trazado 922202" d="M415.291,230.583a5.291,5.291,0,1,1,5.291-5.291A5.3,5.3,0,0,1,415.291,230.583Zm0-7.937a2.646,2.646,0,1,0,2.646,2.646A2.649,2.649,0,0,0,415.291,222.646Z" transform="translate(-362.377 -194.866)"/>
    </g>
  </g>
</svg>
