<svg xmlns="http://www.w3.org/2000/svg" width="44.347" height="49.711" viewBox="0 0 44.347 49.711">
  <path id="avance" d="M75.934,66.182l6.19.69L83.1,63.2a.927.927,0,0,1,1.708-.194l1.417,2.7h5.342a.976.976,0,0,0,.836-1.417.847.847,0,0,0-.836-.533H87.938a.906.906,0,0,1-.824-.509l-2-3.925L77.666,56.9l-7.547,1.7-1.308,4.894a.862.862,0,0,0,.3.957A.98.98,0,0,0,70.7,64l.872-3.234a.9.9,0,0,1,.69-.666l4.07-.9A.927.927,0,0,1,77.5,60.331Zm6.6,2.6L75.449,68l-.594,2.217V85.007h3.356V71.851a.928.928,0,0,1,1.345-.824l4.882,2.508a.933.933,0,0,1,.557.848v2.992h3.368V71.839Zm.618,8.6V74.964l-3.089-1.587V85.007h1.3V78.32a.92.92,0,0,1,.921-.921h.872ZM73,84.995V70.083a.814.814,0,0,1,.048-.291l2.277-8.48-2.108.46-.727,2.7a2.817,2.817,0,0,1-4.482,1.454,2.63,2.63,0,0,1-.993-2.919l1.454-5.427a.938.938,0,0,1,.751-.678l8.286-1.866a.929.929,0,0,1,.485.024l.46.145a5.695,5.695,0,1,1,7.91,2.641,1.061,1.061,0,0,1,.23.291l1.914,3.755h3.065a2.81,2.81,0,0,1,2.556,3.949,2.635,2.635,0,0,1-2.556,1.72h-5.9a.915.915,0,0,1-.812-.5l-.581-1.1-.388,1.429,5.839,3.065a.93.93,0,0,1,.5.824v6.093h5.16V70.688a.92.92,0,0,1,.921-.921h7.28v-11H93.935a.92.92,0,0,1-.921-.921c0-.642.4-.812,1.018-1.078a9.431,9.431,0,0,0,2.217-1.223,1.681,1.681,0,0,0,.17-2.677c-.9-1.1-1.405-2.435-.69-3.622.8-1.333,2.75-1.708,4.409-1.708h3.452v-.206a2.6,2.6,0,1,1,5.2,0V69.768h1.551a.92.92,0,0,1,.921.921V93.511a.931.931,0,0,1-.921.933H68.266a.933.933,0,0,1-.933-.933V85.9a.923.923,0,0,1,.933-.921H73ZM86.376,50.143a3.846,3.846,0,1,0,0,5.439A3.846,3.846,0,0,0,86.376,50.143Zm19.818-3.549a.742.742,0,0,0-.739.739V69.768h1.49V47.345a.763.763,0,0,0-.751-.751Zm-2.6,10.333V49.4h-3.452c-.945,0-2.435.17-2.823.812-.242.4.182,1.066.533,1.49,1.9,2.314,1.054,4.022-.363,5.221Zm-21.3,29.921H69.186V92.6h40.23V71.633H97.242V78.32a.933.933,0,0,1-.933.933h-13.1V85.94A.918.918,0,0,1,82.293,86.848Z" transform="translate(-66.91 -44.732)" fill="#12263f"/>
</svg>
