<svg xmlns="http://www.w3.org/2000/svg" xmlns:xlink="http://www.w3.org/1999/xlink" width="116.361" height="116.361" viewBox="0 0 116.361 116.361">
  <defs>
    <filter id="Trazado_920741" x="0" y="0" width="116.361" height="116.361" filterUnits="userSpaceOnUse">
      <feOffset dy="3" input="SourceAlpha"/>
      <feGaussianBlur stdDeviation="3" result="blur"/>
      <feFlood flood-opacity="0.161"/>
      <feComposite operator="in" in2="blur"/>
      <feComposite in="SourceGraphic"/>
    </filter>
  </defs>
  <g id="Grupo_1142850" data-name="Grupo 1142850" transform="translate(-801 -1875.091)">
    <g transform="matrix(1, 0, 0, 1, 801, 1875.09)" filter="url(#Trazado_920741)">
      <g id="Trazado_920741-2" data-name="Trazado 920741" transform="translate(9 6)" fill="#fff">
        <path d="M 49.18058776855469 96.36102294921875 C 42.81035995483398 96.36102294921875 36.63174438476562 95.11385345458984 30.81637382507324 92.65416717529297 C 25.19837379455566 90.2779541015625 20.15248870849609 86.87579345703125 15.81886005401611 82.54216766357422 C 11.48523139953613 78.20854949951172 8.083074569702148 73.16266632080078 5.706860065460205 67.544677734375 C 3.247174263000488 61.72932052612305 2.000002861022949 55.55072021484375 2.000002861022949 49.18050765991211 C 2.000002861022949 42.81029510498047 3.247174263000488 36.63169479370117 5.706860065460205 30.81633567810059 C 8.083060264587402 25.1983642578125 11.48523139953613 20.15247917175293 15.81884574890137 15.81885051727295 C 20.15247344970703 11.48523616790771 25.19836044311523 8.083065032958984 30.81633186340332 5.706864833831787 C 36.63168716430664 3.24717903137207 42.81028747558594 2.000007629394531 49.18050384521484 2.000007629394531 C 55.55073165893555 2.000007629394531 61.72934722900391 3.24717903137207 67.54471588134766 5.706864833831787 C 73.1627197265625 8.083065032958984 78.20860290527344 11.48523616790771 82.54222869873047 15.81885051727295 C 86.87586212158203 20.15247917175293 90.27801513671875 25.1983642578125 92.65422821044922 30.81633567810059 C 95.11391448974609 36.63169479370117 96.36109161376953 42.81029510498047 96.36109161376953 49.18050765991211 C 96.36109161376953 55.55072021484375 95.11391448974609 61.72932052612305 92.65422821044922 67.544677734375 C 90.27803039550781 73.16266632080078 86.87586212158203 78.20854949951172 82.54224395751953 82.54216766357422 C 78.2086181640625 86.87579345703125 73.16273498535156 90.2779541015625 67.54476165771484 92.65416717529297 C 61.72938919067383 95.11385345458984 55.55080413818359 96.36102294921875 49.18058776855469 96.36102294921875 Z" stroke="none"/>
        <path d="M 49.18051147460938 3.999992370605469 C 43.07941436767578 3.999992370605469 37.16294479370117 5.194007873535156 31.59544372558594 7.548858642578125 C 26.21586608886719 9.824226379394531 21.38364410400391 13.08247375488281 17.23306274414062 17.23305511474609 C 13.08248138427734 21.38364410400391 9.824226379394531 26.21585845947266 7.548866271972656 31.59544372558594 C 5.194015502929688 37.16294097900391 3.999992370605469 43.07940673828125 3.999992370605469 49.18050765991211 C 3.999992370605469 55.28160858154297 5.194015502929688 61.19807434082031 7.548866271972656 66.76557159423828 C 9.824249267578125 72.14515686035156 13.08248138427734 76.97735595703125 17.23306274414062 81.12794494628906 C 21.38365936279297 85.27854156494141 26.21588134765625 88.53677368164062 31.59548187255859 90.81214141845703 C 37.16299438476562 93.1669921875 43.0794792175293 94.36100769042969 49.18059539794922 94.36100769042969 C 55.28167724609375 94.36100769042969 61.19816207885742 93.1669921875 66.76566314697266 90.81214141845703 C 72.14524841308594 88.53677368164062 76.97744750976562 85.27854156494141 81.12802886962891 81.12794494628906 C 85.27862548828125 76.97735595703125 88.536865234375 72.14515686035156 90.81222534179688 66.76557159423828 C 93.16707611083984 61.19807434082031 94.36109924316406 55.28160858154297 94.36109924316406 49.18050765991211 C 94.36109924316406 43.07940673828125 93.16707611083984 37.16294097900391 90.81222534179688 31.59544372558594 C 88.53684997558594 26.21585845947266 85.27861022949219 21.38365936279297 81.12802886962891 17.23305511474609 C 76.97743225097656 13.08247375488281 72.14521026611328 9.824226379394531 66.765625 7.548858642578125 C 61.19811248779297 5.194007873535156 55.2816276550293 3.999992370605469 49.18051147460938 3.999992370605469 M 49.18051147460938 -7.62939453125e-06 L 49.18059539794922 -7.62939453125e-06 C 76.34223175048828 -7.62939453125e-06 98.36109924316406 22.01885986328125 98.36109924316406 49.18050765991211 C 98.36109924316406 76.34215545654297 76.34223175048828 98.36100769042969 49.18059539794922 98.36100769042969 L 49.18051147460938 98.36100769042969 C 22.01885986328125 98.36100769042969 -7.62939453125e-06 76.34215545654297 -7.62939453125e-06 49.18050765991211 C -7.62939453125e-06 22.01885986328125 22.01885986328125 -7.62939453125e-06 49.18051147460938 -7.62939453125e-06 Z" stroke="none" fill="#f3d02c"/>
      </g>
    </g>
    <g id="gaia" transform="translate(826.285 1897.739)">
      <g id="Layer_6_copy" data-name="Layer 6 copy" transform="translate(0.676 0.66)">
        <path id="Trazado_922069" data-name="Trazado 922069" d="M88.084,126.983a6.833,6.833,0,0,0-8.188.01.286.286,0,0,0-.036.424,7.321,7.321,0,0,0,8.841,1.4Z" transform="translate(-70.558 -110.336)" fill="#22b27f"/>
        <path id="Trazado_922070" data-name="Trazado 922070" d="M104.157,74.9c.017-.142.168-6.783-6.376-8.792a.38.38,0,0,0-.484.292c-.3,1.542-.882,7.146,5.37,10.59Z" transform="translate(-85.563 -58.871)" fill="#baeb6c"/>
        <path id="Trazado_922071" data-name="Trazado 922071" d="M47.481,232.991a6.833,6.833,0,0,0-4.893-6.565.286.286,0,0,0-.362.225,7.32,7.32,0,0,0,4.152,7.93Z" transform="translate(-37.982 -197.539)" fill="#22b27f"/>
        <path id="Trazado_922072" data-name="Trazado 922072" d="M22.5,267.258c-.1-.106-5.022-4.563-10.821-.925a.38.38,0,0,0-.1.556c.973,1.234,4.83,5.34,11.524,2.863Z" transform="translate(-11.503 -230.831)" fill="#baeb6c"/>
        <path id="Trazado_922073" data-name="Trazado 922073" d="M354.813,126.983a6.833,6.833,0,0,1,8.188.01.286.286,0,0,1,.036.424,7.321,7.321,0,0,1-8.841,1.4Z" transform="translate(-307.899 -110.336)" fill="#22b27f"/>
        <path id="Trazado_922074" data-name="Trazado 922074" d="M350.843,74.9c-.017-.142-.168-6.783,6.376-8.792a.38.38,0,0,1,.484.292c.3,1.542.882,7.146-5.37,10.59Z" transform="translate(-304.998 -58.871)" fill="#baeb6c"/>
        <path id="Trazado_922075" data-name="Trazado 922075" d="M418.177,232.991a6.833,6.833,0,0,1,4.893-6.565.286.286,0,0,1,.362.225,7.32,7.32,0,0,1-4.152,7.93Z" transform="translate(-363.237 -197.539)" fill="#22b27f"/>
        <path id="Trazado_922076" data-name="Trazado 922076" d="M403.2,267.258c.1-.106,5.022-4.563,10.821-.925a.38.38,0,0,1,.1.556c-.973,1.234-4.83,5.34-11.524,2.863Z" transform="translate(-349.759 -230.831)" fill="#baeb6c"/>
        <path id="Trazado_922077" data-name="Trazado 922077" d="M104.523,60.229a8.532,8.532,0,0,0-1.624,1.254,6.96,6.96,0,0,0-1.828,3.453c-.68,2.823-6.8,8.21-10.982,7.634s-10.019-3.608-10.019-3.608-5.835,3.033-10.019,3.608-10.3-4.811-10.982-7.634a6.954,6.954,0,0,0-3.452-4.707,5.245,5.245,0,0,1-.68-7.74c1.814-1.816,1.662-5.309,1.418-7.194a15.76,15.76,0,0,1,.05-4.558c.423-2.594,1.509-6.021,4.284-7.545a11.643,11.643,0,0,0,5.49-8,14.378,14.378,0,0,1,8.561-11.338,12.645,12.645,0,0,1,10.656,0A14.378,14.378,0,0,1,93.96,25.191a11.643,11.643,0,0,0,5.49,8c2.775,1.524,3.861,4.951,4.284,7.545a15.76,15.76,0,0,1,.05,4.558c-.243,1.885-.4,5.378,1.418,7.194A5.245,5.245,0,0,1,104.523,60.229Z" transform="translate(-47.851 -12.674)" fill="#49cb5c"/>
        <path id="Trazado_922078" data-name="Trazado 922078" d="M254.577,60.223a8.532,8.532,0,0,0-1.624,1.254,8.21,8.21,0,0,0,.47-2.151c.143-2.124-.773-4.155-1.227-6.235-1.046-4.786.265-10.243-2.43-14.333-1.327-2.012-3.442-3.356-5.032-5.166a12.445,12.445,0,0,1-2.586-4.7c-.569-1.947-.657-4.02-1.346-5.929a13.32,13.32,0,0,0-5.844-6.594,37.957,37.957,0,0,0-7.938-3.31,12.628,12.628,0,0,1,8.433.79,14.378,14.378,0,0,1,8.561,11.338,11.643,11.643,0,0,0,5.49,8c2.775,1.524,3.861,4.951,4.284,7.545a15.761,15.761,0,0,1,.05,4.558c-.243,1.885-.4,5.378,1.418,7.194a5.245,5.245,0,0,1-.68,7.74Z" transform="translate(-197.905 -12.668)" fill="#2fa53d"/>
        <path id="Trazado_922079" data-name="Trazado 922079" d="M192.484,61.968c0,6.223-8.984,8.961-8.984,8.961.429,11.12,8.984,11.643,8.984,11.643s8.555-.523,8.984-11.643C201.467,70.929,192.484,68.191,192.484,61.968Z" transform="translate(-160.264 -55.308)" fill="#f9dec5"/>
        <path id="Trazado_922080" data-name="Trazado 922080" d="M286.089,201.223c.35-.1,3.435-6.328,9.083-5.543s3.138,16.42,3.138,16.42h-9.674Z" transform="translate(-248.994 -170.897)" fill="#f9dec5"/>
        <path id="Trazado_922081" data-name="Trazado 922081" d="M132.113,201.223c-.35-.1-3.435-6.328-9.083-5.543s-3.138,16.42-3.138,16.42h9.675Z" transform="translate(-104.769 -170.897)" fill="#f9dec5"/>
        <path id="Trazado_922082" data-name="Trazado 922082" d="M149.075,225.246c0,.54-.023,1.079-.068,1.608a18.76,18.76,0,1,1,.068-1.608Z" transform="translate(-98.039 -180.317)" fill="#97c9e8"/>
        <path id="Trazado_922083" data-name="Trazado 922083" d="M210.379,267.8c0,.54-.023,1.079-.068,1.608a18.723,18.723,0,0,1-27.876,14.679A20.824,20.824,0,0,0,205.942,255.7,18.638,18.638,0,0,1,210.379,267.8Z" transform="translate(-159.343 -222.868)" fill="#6194c6"/>
        <path id="Trazado_922084" data-name="Trazado 922084" d="M219.62,225.4c0,.54-.023,1.079-.068,1.608-1.187-.534-2.24-2.226-2.885-3.483-.17-.328-.311-.625-.419-.865a1.587,1.587,0,0,0-1.567-.943,1.531,1.531,0,0,0-1.273,1.006,8.044,8.044,0,0,1-2.81,2.969c-2.222,1.4-3.356.046-3.719-2.652s-1.382-3.787-3.717-7.164-3.332-2.629-6.937-3.467c-2.2-.513-2.9-2.537-3.105-4.034a18.721,18.721,0,0,1,26.5,17.026Z" transform="translate(-168.585 -180.469)" fill="#baeb6c"/>
        <path id="Trazado_922085" data-name="Trazado 922085" d="M136.89,289.7a18.7,18.7,0,0,1-6.533.965,18.5,18.5,0,0,1-8.619-2.411,18.7,18.7,0,0,1-5.629-27.742,9.1,9.1,0,0,1,2.461,1.471,5.344,5.344,0,0,1,1.956,4.146s.025.346.012.859a9,9,0,0,1-.318,2.281,2.525,2.525,0,0,0,.912,2.776,7.036,7.036,0,0,0,2.9,1.1,3.082,3.082,0,0,1,2.474,2.38,4.539,4.539,0,0,1-.312,2.6,3.305,3.305,0,0,1-1.621,1.76,7.022,7.022,0,0,0-2.482,1.781c-.454.67.244,1.577.914,2.223a6.779,6.779,0,0,0,2.024,1.037c.737.275.866,1.229,1.979,1.681a5.11,5.11,0,0,0,2.677.554,4.323,4.323,0,0,1,2.71.353l.2.1C133.753,288.189,135.354,288.971,136.89,289.7Z" transform="translate(-98.596 -227.031)" fill="#baeb6c"/>
        <ellipse id="Elipse_11684" data-name="Elipse 11684" cx="3.896" cy="2.775" rx="3.896" ry="2.775" transform="translate(17.331 37.284) rotate(-41.272)" fill="#f3fbff"/>
        <path id="Trazado_922086" data-name="Trazado 922086" d="M197.954,463.229a18.7,18.7,0,0,1-6.533.965,18.5,18.5,0,0,1-8.619-2.411,20.949,20.949,0,0,0,10.857-.638C194.817,461.716,196.418,462.5,197.954,463.229Z" transform="translate(-159.661 -400.558)" fill="#7aaf43"/>
        <path id="Trazado_922087" data-name="Trazado 922087" d="M268.42,374.222a1.185,1.185,0,0,0-.987,1.1c-.048.782-.275,2.534-1.334,3.088a7.851,7.851,0,0,1-2.629.771,1.179,1.179,0,0,0-.8.443.827.827,0,0,0-.118.875,2.274,2.274,0,0,0,2.418,1.521c1.056-.211,2.924-.37,3.834-1.062a4.866,4.866,0,0,0,2.111-4.449s.07-2.06-1.61-2.283A3.054,3.054,0,0,0,268.42,374.222Z" transform="translate(-228.569 -325.353)" fill="#baeb6c"/>
        <path id="Trazado_922088" data-name="Trazado 922088" d="M360.876,267.786c0,.54-.023,1.079-.068,1.608-1.187-.534-2.24-2.226-2.885-3.483a21.185,21.185,0,0,0,.115-2.207,20.746,20.746,0,0,0-1.6-8.015A18.638,18.638,0,0,1,360.876,267.786Z" transform="translate(-309.841 -222.857)" fill="#7aaf43"/>
        <path id="Trazado_922089" data-name="Trazado 922089" d="M152.62,276.408a2.68,2.68,0,0,1-2.8-.6c-.953-1.085-.571-3,.833-4.408a5.344,5.344,0,0,1,1.956,4.146S152.634,275.9,152.62,276.408Z" transform="translate(-130.68 -236.449)" fill="#f4ffde"/>
        <g id="Grupo_1142849" data-name="Grupo 1142849" transform="translate(9.971 45.462)">
          <path id="Trazado_922090" data-name="Trazado 922090" d="M92.375,355.112s.915-4.727,1.666-4.846a3.016,3.016,0,0,1,1.047-.016c.693.1,1.123.612.936,1.111l-1.187,3.159Z" transform="translate(-91.42 -350.074)" fill="#f9dec5"/>
          <path id="Trazado_922091" data-name="Trazado 922091" d="M92.938,360.411s.4.877,3.307,3.26c0,0-5.193,1.5-8.961-1.162a4.227,4.227,0,0,1-1.963-3.673c.346-3.81,3.681-7.059,3.681-7.059l2.65-2.424a.6.6,0,0,1,.919.126l2.378,3.816a1.6,1.6,0,0,1,.218,1.121l-.139.792v1.927a1.254,1.254,0,0,1-.241.739Z" transform="translate(-85.309 -349.195)" fill="#f9dec5"/>
          <path id="Trazado_922092" data-name="Trazado 922092" d="M383.983,355.112s-.915-4.727-1.666-4.846a3.017,3.017,0,0,0-1.047-.016c-.693.1-1.123.612-.936,1.111l1.188,3.159Z" transform="translate(-340.44 -350.074)" fill="#f9dec5"/>
          <path id="Trazado_922093" data-name="Trazado 922093" d="M337.287,360.409s-.367.887-3.269,3.27c0,0,5.155,1.489,8.923-1.173a4.227,4.227,0,0,0,1.962-3.673c-.346-3.81-3.681-7.059-3.681-7.059l-2.65-2.424a.6.6,0,0,0-.919.126l-2.379,3.816a1.6,1.6,0,0,0-.218,1.121l.139.792v1.927a1.254,1.254,0,0,0,.241.739Z" transform="translate(-300.419 -349.193)" fill="#f9dec5"/>
        </g>
        <ellipse id="Elipse_11685" data-name="Elipse 11685" cx="1.219" cy="0.782" rx="1.219" ry="0.782" transform="translate(16.839 27.66) rotate(-40.458)" fill="#f3fbff"/>
      </g>
      <g id="Layer_6_copy_4" data-name="Layer 6 copy 4" transform="translate(0 0)">
        <path id="Trazado_922094" data-name="Trazado 922094" d="M72.276,44.084a1.055,1.055,0,0,0-.479-.715,9.209,9.209,0,0,0-8.129-1.006c.041-.808.135-1.29.193-2a5.7,5.7,0,0,1,2.908-2.249,6.857,6.857,0,0,1-.136,2.224.676.676,0,0,0,1.317.3,8.173,8.173,0,0,0,.086-3.209.961.961,0,0,0-1.216-.755,7.468,7.468,0,0,0-2.91,1.573c-.245-3.587-1.274-7.944-4.994-9.993A8.055,8.055,0,0,0,62.8,25.984a.962.962,0,0,0-.119-1.427A7.9,7.9,0,0,0,60.829,23.5a.675.675,0,0,0-.5,1.256,6.337,6.337,0,0,1,1.168.613,6.512,6.512,0,0,1-4.153,1.743,9.751,9.751,0,0,1-.939-.976,11.4,11.4,0,0,0,2.116-2.015,10.207,10.207,0,0,0,2.019-8.29,1.056,1.056,0,0,0-1.345-.807,9.164,9.164,0,0,0-5.533,4.351A15.062,15.062,0,0,0,45.009,9.005C37.318,5.429,27.5,9.913,25.125,19.379a9.164,9.164,0,0,0-5.533-4.351,1.056,1.056,0,0,0-1.346.809,10.3,10.3,0,0,0,1.289,7.25,7.343,7.343,0,0,0-3.428,1.471.969.969,0,0,0-.119,1.424,8.044,8.044,0,0,0,1.55,1.272.675.675,0,1,0,.723-1.141,6.966,6.966,0,0,1-.968-.74,5.728,5.728,0,0,1,3.181-1,11.541,11.541,0,0,0,1.91,1.768,9.407,9.407,0,0,1-2.69,2.226c-3.574,2.076-4.575,6.4-4.81,9.886a7.469,7.469,0,0,0-2.912-1.573.961.961,0,0,0-1.214.753,8.1,8.1,0,0,0,.483,4.448A9.628,9.628,0,0,0,7,43.368a1.054,1.054,0,0,0-.268,1.547,10.56,10.56,0,0,0,3.744,2.964.675.675,0,0,0,.574-1.223A9.365,9.365,0,0,1,8,44.338a7.852,7.852,0,0,1,7.13-.531,6.051,6.051,0,0,1-1.346,3.97c-2.508,2.33-1.914,7.067.806,8.794A6.16,6.16,0,0,1,17.5,60.039a10.039,10.039,0,0,0-1.013,3.442c-.264,4.171,4.914,6.131,8.207,6a14.623,14.623,0,0,0,3.218-.362,19.559,19.559,0,0,0,22.964,0,14.433,14.433,0,0,0,3.219.365c3.284.133,8.475-1.833,8.208-6a10.04,10.04,0,0,0-1.013-3.443A6.161,6.161,0,0,1,64.2,56.57c2.336-1.42,3.2-5.521,1.537-7.888a10.289,10.289,0,0,0,6.325-3.765,1.055,1.055,0,0,0,.214-.833Zm-13-27.661a8.954,8.954,0,0,1-3.663,8.626,12.2,12.2,0,0,1-1.476-3.359,7.9,7.9,0,0,1,5.139-5.267ZM21.32,23.28a8.961,8.961,0,0,1-1.8-6.857,7.9,7.9,0,0,1,5.139,5.268A12.19,12.19,0,0,1,23.18,25.05a10.055,10.055,0,0,1-1.86-1.769Zm-9.3,14.836a5.706,5.706,0,0,1,2.908,2.249c.058.709.152,1.19.193,2a9.559,9.559,0,0,0-2.4-.5,6.615,6.615,0,0,1-.7-3.751Zm8.886,17.39a11.372,11.372,0,0,0-1.785,1.931,11.614,11.614,0,0,1,.895-2.7c.3-.059.992-.021,1.1.211Zm-1.4,11.158a3.594,3.594,0,0,1-1.679-3.06c.312-3.435,3.318-6.476,3.473-6.63l2.576-2.356.289.464a32.433,32.433,0,0,0-4.012,4.8.675.675,0,1,0,1.112.768A33.478,33.478,0,0,1,24.9,56.243l.462.741a21.942,21.942,0,0,0-3.479,4.038A.675.675,0,0,0,23,61.774a21.75,21.75,0,0,1,3.076-3.636l.138.221a.924.924,0,0,1,.126.648l-.09.513a11.32,11.32,0,0,0-2.716,2.871.676.676,0,1,0,1.088.8,13.908,13.908,0,0,1,1.569-1.881v.531a.575.575,0,0,1-.111.341l-1.85,2.536a2.661,2.661,0,0,1-1.015.936l.018-.006.4,1.291a2.94,2.94,0,0,0,1.109-.746,19.667,19.667,0,0,0,1.837,1.792,10.073,10.073,0,0,1-7.066-1.324Zm16.109-9.843A3.794,3.794,0,0,0,32.6,53.9c-1.817-.368-3.8-1.025-3.307-3.043a10.882,10.882,0,0,0,.336-3.374c-.023-2.53-1.415-4.546-4.039-5.873a18.25,18.25,0,0,1,5.491-4.364,4.681,4.681,0,0,0,3.463,3.718c.862.2,1.567.311,2.19.409,1.939.3,2.742.431,4.382,2.8,1.683,2.437,3.439,4.528,3.623,6.906.41,3.208,2.048,4.815,4.762,3.152a8.692,8.692,0,0,0,3.082-3.274.855.855,0,0,1,1.629-.069,17.529,17.529,0,0,0,1.416,2.563,1.283,1.283,0,0,0-1.814.373l-2.378,3.815a2.272,2.272,0,0,0-.311,1.6l.128.734v1.868a1.918,1.918,0,0,0,.371,1.137l1.574,2.157c-.2.25-.43.494-.641.72a26.546,26.546,0,0,1-2.031,1.84,18.064,18.064,0,0,1-5.083,2.776c-1.239-.591-2.669-1.285-4.261-2.069a5,5,0,0,0-3.146-.415,4.753,4.753,0,0,1-2.313-.517c-.929-.38-1.023-1.333-2.007-1.7a6.8,6.8,0,0,1-1.8-.9c-.779-.752-.922-1.231-.827-1.371a6.3,6.3,0,0,1,2.233-1.563c1.847-.824,2.685-3.358,2.305-5.125Zm22.261-1.315-.209-.549c.107-.243.8-.275,1.1-.218a11.614,11.614,0,0,1,.895,2.7,11.389,11.389,0,0,0-1.786-1.931Zm1.4,11.159A10.051,10.051,0,0,1,52.253,68c.536-.473.952-.872,1.277-1.207l.009-.008c.2-.205.381-.407.524-.574a2.928,2.928,0,0,0,1.1.735l.4-1.291.018.006a2.666,2.666,0,0,1-1.015-.936l-1.85-2.537a.575.575,0,0,1-.111-.341v-.531a13.909,13.909,0,0,1,1.569,1.881.676.676,0,0,0,1.088-.8,11.327,11.327,0,0,0-2.716-2.871l-.09-.513a.924.924,0,0,1,.126-.648l.138-.221a21.744,21.744,0,0,1,3.076,3.636.675.675,0,0,0,1.121-.753,21.915,21.915,0,0,0-3.479-4.038l.462-.741a33.486,33.486,0,0,1,3.626,4.405.675.675,0,1,0,1.112-.768,32.53,32.53,0,0,0-4.012-4.8l.289-.464,2.575,2.356c.159.159,3.161,3.2,3.473,6.631a3.592,3.592,0,0,1-1.679,3.06Zm5.949-14.393A4.455,4.455,0,0,1,63.5,55.418a8.342,8.342,0,0,0-2.408,2.121c-.889-3.941-1.627-4.06-1.959-4.113a3.357,3.357,0,0,0-1.736.113,13.808,13.808,0,0,1-1.955-3.2,2.263,2.263,0,0,0-2.25-1.344,2.193,2.193,0,0,0-1.833,1.4A7.434,7.434,0,0,1,48.8,53.082c-.47.3-1.133.614-1.6.394-.531-.248-.928-1.162-1.118-2.571-.274-2.8-2.047-4.88-3.85-7.495-1.97-2.849-3.218-3.046-5.284-3.37-.6-.095-1.28-.2-2.094-.39a3.512,3.512,0,0,1-2.519-2.991,17.908,17.908,0,0,1,4.1-1.189A18.228,18.228,0,0,1,57.375,50.932a.676.676,0,1,0,1.339-.18,19.555,19.555,0,0,0-10.982-15,6.8,6.8,0,0,1,5.53-1.856c2.368.329,2.989,4.222,3.094,7.43a.675.675,0,1,0,1.35-.044c-.176-5.421-1.608-8.356-4.258-8.724a8.278,8.278,0,0,0-7.079,2.612,19.483,19.483,0,0,0-2.1-.67c2.185-1.571,4.322-4.41,4.729-9.527a5.277,5.277,0,0,0,1.069.219.676.676,0,0,0,.06-1.348c-1.007-.165-9.884-2.641-10.059-8.741a.675.675,0,1,0-1.351,0c-.171,6.082-9.018,8.571-10.058,8.741a.675.675,0,0,0,.06,1.348,5.273,5.273,0,0,0,1.069-.219c.407,5.114,2.541,7.952,4.725,9.524a19.268,19.268,0,0,0-2.094.671,8.277,8.277,0,0,0-7.077-2.61c-2.649.368-4.082,3.3-4.258,8.725a.675.675,0,1,0,1.35.044c.1-3.208.725-7.1,3.094-7.43a6.8,6.8,0,0,1,5.529,1.856,19.563,19.563,0,0,0-11.041,15.5.675.675,0,1,0,1.343.145,18.052,18.052,0,0,1,3.367-8.7c2.358,1.109,3.545,2.741,3.547,4.861a9.682,9.682,0,0,1-.282,2.916c-.743,2.888,1.693,4.3,4.359,4.757,1.959.425,2.408,2.325,1.664,4.095a2.642,2.642,0,0,1-1.3,1.41,7.151,7.151,0,0,0-2.756,2.017c-.4.586-.547,1.6,1.006,3.1a6.978,6.978,0,0,0,2.27,1.191c.152.056.277.208.486.473a3.5,3.5,0,0,0,1.485,1.211,5.782,5.782,0,0,0,3.068.593,3.654,3.654,0,0,1,2.3.3c1.043.513,2.017.989,2.915,1.423a18.116,18.116,0,0,1-14.9-3.1,23.928,23.928,0,0,1-2.992-2.815l1.566-2.147a1.918,1.918,0,0,0,.371-1.137V59.975l.129-.735a2.273,2.273,0,0,0-.311-1.6l-2.378-3.816a1.286,1.286,0,0,0-1.947-.267l-.76.695a2.481,2.481,0,0,0-2.613-.83c-.332.053-1.07.171-1.959,4.113A8.342,8.342,0,0,0,15.3,55.418a4.454,4.454,0,0,1-1.733-3.146,4.191,4.191,0,0,1,1.179-3.539A7.657,7.657,0,0,0,16.5,43.411a.408.408,0,0,0,0-.05,17.444,17.444,0,0,0-.145-2.386c-.479-3.738.367-9.315,3.989-11.424a12.226,12.226,0,0,0,5.833-8.495C27.62,11.573,37.16,6.826,44.439,10.23a13.764,13.764,0,0,1,8.177,10.817,12.227,12.227,0,0,0,5.834,8.5c3.623,2.108,4.466,7.686,3.989,11.424a17.415,17.415,0,0,0-.147,2.386v.05a7.82,7.82,0,0,0,1.642,5.2l.014.015a4.23,4.23,0,0,1,1.281,3.647ZM39.4,33.877a19.691,19.691,0,0,0-2.948.222c-2.292-1.187-4.971-3.8-5.335-9.561,1.6-.571,6.483-2.584,8.283-6.424,1.8,3.84,6.682,5.853,8.283,6.424-.365,5.762-3.047,8.377-5.342,9.563a19.521,19.521,0,0,0-2.942-.224ZM64.716,47.444a6.624,6.624,0,0,1-1.056-3.637,7.853,7.853,0,0,1,7.13.531A8.986,8.986,0,0,1,64.716,47.444Z" transform="translate(-6.501 -7.779)" fill="#352727"/>
        <path id="Trazado_922095" data-name="Trazado 922095" d="M259.574,378.557a10.039,10.039,0,0,0,1.257-.181,8.084,8.084,0,0,0,3.39-1.064c.665-.5,2.356-1.631,2.389-5a2.725,2.725,0,0,0-3.289-2.978,1.855,1.855,0,0,0-1.559,1.733c-.063,1.017-.353,2.22-.98,2.548a7.3,7.3,0,0,1-2.406.7,1.68,1.68,0,0,0-1.47,2.261A3.037,3.037,0,0,0,259.574,378.557Zm-1.393-2.711a.512.512,0,0,1,.349-.186,8.537,8.537,0,0,0,2.879-.847c1.327-.7,1.636-2.592,1.7-3.661.063-.569.637-.535,1.118-.475,1.051.15,1.033,1.457,1.032,1.626-.037,2.716-1.253,3.478-1.856,3.935-.793.58-2.49.726-3.579.943-.871.173-1.463-.629-1.677-1.131A.163.163,0,0,1,258.181,375.846Z" transform="translate(-222.962 -320.451)" fill="#352727"/>
        <path id="Trazado_922096" data-name="Trazado 922096" d="M260.637,143.024a.675.675,0,0,0-.931-.212,3.8,3.8,0,0,1-3.756-.044A.676.676,0,0,0,255.4,144a6.521,6.521,0,0,0,2.66.635,4.37,4.37,0,0,0,2.369-.68.675.675,0,0,0,.213-.931Z" transform="translate(-221.427 -124.479)" fill="#352727"/>
        <path id="Trazado_922097" data-name="Trazado 922097" d="M207.275,142.758a3.8,3.8,0,0,1-3.756.044.675.675,0,1,0-.719,1.144,5.126,5.126,0,0,0,5.029.044A.676.676,0,0,0,207.275,142.758Z" transform="translate(-176.007 -124.471)" fill="#352727"/>
      </g>
    </g>
  </g>
</svg>
