<svg xmlns="http://www.w3.org/2000/svg" xmlns:xlink="http://www.w3.org/1999/xlink" width="116.36" height="116.36" viewBox="0 0 116.36 116.36">
  <defs>
    <filter id="Trazado_920741" x="0" y="0" width="116.36" height="116.36" filterUnits="userSpaceOnUse">
      <feOffset dy="3" input="SourceAlpha"/>
      <feGaussianBlur stdDeviation="3" result="blur"/>
      <feFlood flood-opacity="0.161"/>
      <feComposite operator="in" in2="blur"/>
      <feComposite in="SourceGraphic"/>
    </filter>
  </defs>
  <g id="Grupo_1142897" data-name="Grupo 1142897" transform="translate(-1115.22 -1875.091)">
    <g transform="matrix(1, 0, 0, 1, 1115.22, 1875.09)" filter="url(#Trazado_920741)">
      <g id="Trazado_920741-2" data-name="Trazado 920741" transform="translate(9 6)" fill="#fff">
        <path d="M 49.18003845214844 96.35993957519531 C 42.80988311767578 96.35993957519531 36.63134002685547 95.11278533935547 30.8160400390625 92.65312957763672 C 25.19811058044434 90.27693939208984 20.15226745605469 86.87480926513672 15.81869602203369 82.54124450683594 C 11.4851245880127 78.20767211914062 8.082996368408203 73.16184234619141 5.70681095123291 67.54393005371094 C 3.247153520584106 61.72864151000977 1.999996542930603 55.55011367797852 1.999996542930603 49.17996978759766 C 1.999996542930603 42.8098258972168 3.247153520584106 36.63131332397461 5.70681095123291 30.81601333618164 C 8.082982063293457 25.19809913635254 11.48511123657227 20.15226936340332 15.81868267059326 15.81869792938232 C 20.15225410461426 11.48512649536133 25.19808197021484 8.082998275756836 30.81599617004395 5.706812858581543 C 36.63129806518555 3.247155427932739 42.8098258972168 1.999998331069946 49.17995452880859 1.999998331069946 C 55.55010986328125 1.999998331069946 61.72865295410156 3.247155427932739 67.54395294189453 5.706812858581543 C 73.16188049316406 8.082998275756836 78.20772552490234 11.48512649536133 82.54129791259766 15.81869792938232 C 86.87487030029297 20.15226936340332 90.27699279785156 25.19809913635254 92.65318298339844 30.81601333618164 C 95.11283874511719 36.63129806518555 96.35999298095703 42.8098258972168 96.35999298095703 49.17996978759766 C 96.35999298095703 55.55011367797852 95.11283874511719 61.7286262512207 92.65318298339844 67.54393005371094 C 90.27700805664062 73.16184234619141 86.87488555908203 78.20767211914062 82.54131317138672 82.54124450683594 C 78.20774078369141 86.87480926513672 73.16191101074219 90.27693939208984 67.54399871826172 92.65312957763672 C 61.72869491577148 95.11278533935547 55.55016708374023 96.35993957519531 49.18003845214844 96.35993957519531 Z" stroke="none"/>
        <path d="M 49.17996215820312 4 C 43.07894515991211 4 37.16254806518555 5.194000244140625 31.59511566162109 7.548820495605469 C 26.215576171875 9.824172973632812 21.38344573974609 13.08236694335938 17.23289489746094 17.23290252685547 C 13.08236694335938 21.38345336914062 9.824165344238281 26.21558380126953 7.548812866210938 31.59512329101562 C 5.194000244140625 37.16255187988281 4 43.07895278930664 4 49.17996978759766 C 4 55.28098678588867 5.194000244140625 61.1973876953125 7.548812866210938 66.76481628417969 C 9.824165344238281 72.14435577392578 13.08236694335938 76.97648620605469 17.23291015625 81.12703704833984 C 21.38346099853516 85.27757263183594 26.21561431884766 88.5357666015625 31.59514617919922 90.81111907958984 C 37.16257858276367 93.16593933105469 43.07901382446289 94.35993957519531 49.18004608154297 94.35993957519531 C 55.28106307983398 94.35993957519531 61.19746398925781 93.16593933105469 66.764892578125 90.81111907958984 C 72.1444091796875 88.5357666015625 76.97654724121094 85.27757263183594 81.12709808349609 81.12703704833984 C 85.27763366699219 76.97648620605469 88.53582763671875 72.14435577392578 90.81118011474609 66.76481628417969 C 93.16600036621094 61.1973876953125 94.35999298095703 55.28098678588867 94.35999298095703 49.17996978759766 C 94.35999298095703 43.07895278930664 93.16600036621094 37.16255187988281 90.81118011474609 31.59512329101562 C 88.53582763671875 26.21558380126953 85.27763366699219 21.38345336914062 81.1270751953125 17.23290252685547 C 76.97654724121094 13.08236694335938 72.14439392089844 9.824172973632812 66.76486206054688 7.548820495605469 C 61.19741439819336 5.194000244140625 55.28099822998047 4 49.17996215820312 4 M 49.17996215820312 0 L 49.18004608154297 0 C 76.34137725830078 0 98.35999298095703 22.01862335205078 98.35999298095703 49.17996978759766 C 98.35999298095703 76.34132385253906 76.34137725830078 98.35993957519531 49.18004608154297 98.35993957519531 L 49.17996215820312 98.35993957519531 C 22.01861572265625 98.35993957519531 0 76.34132385253906 0 49.17996978759766 C 0 22.01862335205078 22.01861572265625 0 49.17996215820312 0 Z" stroke="none" fill="#f3d02c"/>
      </g>
    </g>
    <g id="humano" transform="translate(1146.528 1903.399)">
      <g id="Grupo_1142895" data-name="Grupo 1142895" transform="translate(0.867 0.867)">
        <g id="Grupo_1142851" data-name="Grupo 1142851" transform="translate(7.021 5.201)">
          <path id="Trazado_922098" data-name="Trazado 922098" d="M18.595,11.467H10.1a4.335,4.335,0,0,1,8.495,0Z" transform="translate(-10.1 -8)" fill="#656d78"/>
        </g>
        <g id="Grupo_1142852" data-name="Grupo 1142852" transform="translate(21.757)">
          <path id="Trazado_922099" data-name="Trazado 922099" d="M35.595,5.467H27.1a4.335,4.335,0,0,1,8.495,0Z" transform="translate(-27.1 -2)" fill="#b27946"/>
        </g>
        <g id="Grupo_1142853" data-name="Grupo 1142853" transform="translate(36.493 5.201)">
          <path id="Trazado_922100" data-name="Trazado 922100" d="M49.578,8.173a4.34,4.34,0,0,1,3.017,3.294H44.1A4.334,4.334,0,0,1,48.347,8,4.445,4.445,0,0,1,49.578,8.173Z" transform="translate(-44.1 -8)" fill="#e6e9ed"/>
        </g>
        <g id="Grupo_1142854" data-name="Grupo 1142854" transform="translate(41.972 3.467)">
          <path id="Trazado_922101" data-name="Trazado 922101" d="M56.991,9.467a3.466,3.466,0,0,1-3.467,3.467h-.087a4.378,4.378,0,0,0,0-1.734A4.34,4.34,0,0,0,50.42,7.907a3.472,3.472,0,0,1,6.571,1.56Z" transform="translate(-50.42 -6)" fill="#e6e9ed"/>
        </g>
        <g id="Grupo_1142855" data-name="Grupo 1142855" transform="translate(5.288 13.956)">
          <path id="Trazado_922102" data-name="Trazado 922102" d="M11.481,18.88a2.6,2.6,0,0,0,2.6,2.6H8.1A4.331,4.331,0,0,1,11.481,18.1Z" transform="translate(-8.1 -18.1)" fill="#b4dd7f"/>
        </g>
        <g id="Grupo_1142856" data-name="Grupo 1142856" transform="translate(11.269 13.956)">
          <path id="Trazado_922103" data-name="Trazado 922103" d="M21.042,21.888a9.2,9.2,0,0,0-.676,2.176,5.222,5.222,0,0,0-4.5-2.583H15a2.6,2.6,0,0,0,2.6-2.6V18.1a4.339,4.339,0,0,1,3.441,3.788Z" transform="translate(-15 -18.1)" fill="#b4dd7f"/>
        </g>
        <g id="Grupo_1142857" data-name="Grupo 1142857" transform="translate(40.741 13.956)">
          <path id="Trazado_922104" data-name="Trazado 922104" d="M55.068,22.347v.832a5.819,5.819,0,0,0-4.117-1.7H49a2.6,2.6,0,0,0,2.6-2.6V18.1A4.335,4.335,0,0,1,55.068,22.347Z" transform="translate(-49 -18.1)" fill="#b4dd7f"/>
        </g>
        <g id="Grupo_1142858" data-name="Grupo 1142858" transform="translate(34.699 13.956)">
          <path id="Trazado_922105" data-name="Trazado 922105" d="M48.072,21.481h-.217a5.834,5.834,0,0,0-5.08,2.956h-.009a9.381,9.381,0,0,0-.737-2.548A4.339,4.339,0,0,1,45.471,18.1v.78a2.6,2.6,0,0,0,2.6,2.6Z" transform="translate(-42.03 -18.1)" fill="#b4dd7f"/>
        </g>
        <g id="Grupo_1142859" data-name="Grupo 1142859" transform="translate(19.937 8.755)">
          <path id="Trazado_922106" data-name="Trazado 922106" d="M28.467,12.88a2.6,2.6,0,0,0,2.6,2.6A9.492,9.492,0,0,0,25,17.656V16.347A4.334,4.334,0,0,1,28.467,12.1Z" transform="translate(-25 -12.1)" fill="#ff826e"/>
        </g>
        <g id="Grupo_1142860" data-name="Grupo 1142860" transform="translate(26.005 8.755)">
          <path id="Trazado_922107" data-name="Trazado 922107" d="M38.068,16.347v1.309A9.492,9.492,0,0,0,32,15.481a2.6,2.6,0,0,0,2.6-2.6V12.1a4.317,4.317,0,0,1,3.467,4.247Z" transform="translate(-32 -12.1)" fill="#ff826e"/>
        </g>
        <g id="Grupo_1142861" data-name="Grupo 1142861" transform="translate(0 34.439)">
          <path id="Trazado_922108" data-name="Trazado 922108" d="M8.354,44.851l2.028,3.762,2.02,3.753V59.3H2V47.546a5.957,5.957,0,0,1,2.384-4.768A5.864,5.864,0,0,1,6.672,41.73Z" transform="translate(-2 -41.73)" fill="#ff826e"/>
        </g>
        <g id="Grupo_1142862" data-name="Grupo 1142862" transform="translate(10.402 41.859)">
          <path id="Trazado_922109" data-name="Trazado 922109" d="M17.467,53.506v6.935H14V53.506l1.734-3.216v2.349a.869.869,0,0,0,.867.867Z" transform="translate(-14 -50.29)" fill="#ff826e"/>
        </g>
        <g id="Grupo_1142863" data-name="Grupo 1142863" transform="translate(8.382 39.007)">
          <path id="Trazado_922110" data-name="Trazado 922110" d="M12.823,47h2.887a9.034,9.034,0,0,0-.286,2.236v.615L13.69,53.068l-2.02-3.753Z" transform="translate(-11.67 -47)" fill="#e6e9ed"/>
        </g>
        <g id="Grupo_1142864" data-name="Grupo 1142864" transform="translate(8.668 35.54)">
          <path id="Trazado_922111" data-name="Trazado 922111" d="M13.734,43l2.861,1.43a8.387,8.387,0,0,0-.832,2.037h-2.9L12,43.867Z" transform="translate(-12 -43)" fill="#ccd1d9"/>
        </g>
        <g id="Grupo_1142865" data-name="Grupo 1142865" transform="translate(6.354 36.407)">
          <path id="Trazado_922112" data-name="Trazado 922112" d="M12.511,46.6l-1.153,2.314L9.33,45.153,11.644,44Z" transform="translate(-9.33 -44)" fill="#fcd770"/>
        </g>
        <g id="Grupo_1142866" data-name="Grupo 1142866" transform="translate(10.402 33.806)">
          <path id="Trazado_922113" data-name="Trazado 922113" d="M16.6,41l2.583.52a8.489,8.489,0,0,0-2.323,2.644L14,42.734Z" transform="translate(-14 -41)" fill="#ffc729"/>
        </g>
        <g id="Grupo_1142867" data-name="Grupo 1142867" transform="translate(4.672 33.806)">
          <path id="Trazado_922114" data-name="Trazado 922114" d="M13.12,42.734l-1.734.867L9.072,44.753,7.39,41.633a.639.639,0,0,1,.121-.035l3.008-.6Z" transform="translate(-7.39 -41)" fill="#ffc729"/>
        </g>
        <g id="Grupo_1142868" data-name="Grupo 1142868" transform="translate(3.467 17.337)">
          <path id="Trazado_922115" data-name="Trazado 922115" d="M19,31.136a6.5,6.5,0,0,1-1.2,1.543l-.615.589a4.085,4.085,0,0,0,.087-.867v-1.63a3.475,3.475,0,0,0-2.626-3.363l-.572-.139-.009-.009a2.961,2.961,0,0,1-1.968,1.17l-2,.286A1.742,1.742,0,0,0,8.6,30.434V32.4a4.085,4.085,0,0,0,.087.867l-.615-.589A6.621,6.621,0,0,1,6,27.851V23.734A1.739,1.739,0,0,1,7.734,22h6.935a5.223,5.223,0,0,1,4.5,2.583A9.016,9.016,0,0,0,19,26.334Z" transform="translate(-6 -22)" fill="#b27946"/>
        </g>
        <g id="Grupo_1142869" data-name="Grupo 1142869" transform="translate(35.436 17.337)">
          <path id="Trazado_922116" data-name="Trazado 922116" d="M53.386,30.434a1.742,1.742,0,0,0-1.491-1.716l-2-.286a2.961,2.961,0,0,1-1.968-1.17l-.009.009-.572.139a3.475,3.475,0,0,0-2.626,3.363V32.4a4.085,4.085,0,0,0,.087.867l-.615-.589a6.5,6.5,0,0,1-1.2-1.543v-4.8a9.052,9.052,0,0,0-.1-1.378h.009A5.834,5.834,0,0,1,47.968,22h2.167a5.86,5.86,0,0,1,5.851,5.851,6.621,6.621,0,0,1-2.072,4.828l-.615.589a4.085,4.085,0,0,0,.087-.867Z" transform="translate(-42.88 -22)" fill="#b27946"/>
        </g>
        <g id="Grupo_1142870" data-name="Grupo 1142870" transform="translate(41.608 34.439)">
          <path id="Trazado_922117" data-name="Trazado 922117" d="M56.935,59.3H50V52.366l2.02-3.753,2.028-3.762L55.73,41.73a5.941,5.941,0,0,1,4.039,3.147,5.992,5.992,0,0,1,.633,2.67V59.3Z" transform="translate(-50 -41.73)" fill="#e6e9ed"/>
        </g>
        <g id="Grupo_1142871" data-name="Grupo 1142871" transform="translate(38.14 41.859)">
          <path id="Trazado_922118" data-name="Trazado 922118" d="M49.467,53.506v6.935H46V53.506h.867a.869.869,0,0,0,.867-.867V50.29Z" transform="translate(-46 -50.29)" fill="#e6e9ed"/>
        </g>
        <g id="Grupo_1142872" data-name="Grupo 1142872" transform="translate(39.588 39.007)">
          <path id="Trazado_922119" data-name="Trazado 922119" d="M50.557,47l1.153,2.314-2.02,3.753-1.734-3.216v-.615A9.034,9.034,0,0,0,47.67,47Z" transform="translate(-47.67 -47)" fill="#fcd770"/>
        </g>
        <g id="Grupo_1142873" data-name="Grupo 1142873" transform="translate(38.747 35.54)">
          <path id="Trazado_922120" data-name="Trazado 922120" d="M51.294,43.867l-.867,2.6h-2.9A8.387,8.387,0,0,0,46.7,44.43L49.561,43Z" transform="translate(-46.7 -43)" fill="#ffc729"/>
        </g>
        <g id="Grupo_1142874" data-name="Grupo 1142874" transform="translate(42.474 36.407)">
          <path id="Trazado_922121" data-name="Trazado 922121" d="M54.181,45.153l-2.028,3.762L51,46.6l.867-2.6Z" transform="translate(-51 -44)" fill="#ff826e"/>
        </g>
        <g id="Grupo_1142875" data-name="Grupo 1142875" transform="translate(41.608 33.806)">
          <path id="Trazado_922122" data-name="Trazado 922122" d="M55.73,41.633l-1.682,3.121L51.734,43.6,50,42.734,52.6,41l3.008.6a.639.639,0,0,1,.121.035Z" transform="translate(-50 -41)" fill="#fc6e51"/>
        </g>
        <g id="Grupo_1142876" data-name="Grupo 1142876" transform="translate(36.424 33.806)">
          <path id="Trazado_922123" data-name="Trazado 922123" d="M49.2,42.734l-2.861,1.43A8.489,8.489,0,0,0,44.02,41.52L46.6,41Z" transform="translate(-44.02 -41)" fill="#fc6e51"/>
        </g>
        <g id="Grupo_1142877" data-name="Grupo 1142877" transform="translate(13.869 45.075)">
          <path id="Trazado_922124" data-name="Trazado 922124" d="M23.2,58.334v2.6H18V54h3.649a10.4,10.4,0,0,0,.52,1.751Z" transform="translate(-18 -54)" fill="#f0d0b4"/>
        </g>
        <g id="Grupo_1142878" data-name="Grupo 1142878" transform="translate(32.939 45.075)">
          <path id="Trazado_922125" data-name="Trazado 922125" d="M45.2,54v6.935H40v-2.6l1.032-2.583A10.4,10.4,0,0,0,41.552,54Z" transform="translate(-40 -54)" fill="#f0d0b4"/>
        </g>
        <g id="Grupo_1142879" data-name="Grupo 1142879" transform="translate(12.136 32.567)">
          <path id="Trazado_922126" data-name="Trazado 922126" d="M21.383,52.078H16.867A.869.869,0,0,1,16,51.211V48.247a9.035,9.035,0,0,1,.286-2.236h.009a8.387,8.387,0,0,1,.832-2.037A8.489,8.489,0,0,1,19.45,41.33a6.061,6.061,0,0,1,.893-.581,8.713,8.713,0,0,1,3.008-1.066l.719-.113L26.6,44.277l3.268,6.068v8.668H22.935v-2.6L21.9,53.829a10.4,10.4,0,0,1-.52-1.751Z" transform="translate(-16 -39.57)" fill="#b4dd7f"/>
        </g>
        <g id="Grupo_1142880" data-name="Grupo 1142880" transform="translate(26.005 32.567)">
          <path id="Trazado_922127" data-name="Trazado 922127" d="M40.486,52.078a10.4,10.4,0,0,1-.52,1.751l-1.032,2.583v2.6H32V50.345l3.268-6.068L37.8,39.57l.719.113a8.713,8.713,0,0,1,3.008,1.066,6.062,6.062,0,0,1,.893.581,8.489,8.489,0,0,1,2.323,2.644,8.387,8.387,0,0,1,.832,2.037h.009a9.034,9.034,0,0,1,.286,2.236v2.965a.869.869,0,0,1-.867.867H40.486Z" transform="translate(-32 -39.57)" fill="#b4dd7f"/>
        </g>
        <g id="Grupo_1142881" data-name="Grupo 1142881" transform="translate(22.737 37.273)">
          <path id="Trazado_922128" data-name="Trazado 922128" d="M34.766,45,31.5,51.068,28.23,45Z" transform="translate(-28.23 -45)" fill="#ffeaa7"/>
        </g>
        <g id="Grupo_1142882" data-name="Grupo 1142882" transform="translate(16.47 12.136)">
          <path id="Trazado_922129" data-name="Trazado 922129" d="M30.535,21.2a7.569,7.569,0,0,1-4.8,3.216l-1.266.251v3.467a6.071,6.071,0,0,0,3.467,5.478v.1a2.593,2.593,0,0,1-2.2,2.566l-1,.156-.719.113a8.713,8.713,0,0,0-3.008,1.066L21,37.6V25.535a9.016,9.016,0,0,1,.165-1.751,9.2,9.2,0,0,1,.676-2.176A9.545,9.545,0,0,1,36.6,18.176a9.023,9.023,0,0,1,.676.615,9.532,9.532,0,0,1,1.95,2.817,9.381,9.381,0,0,1,.737,2.548,9.051,9.051,0,0,1,.1,1.378V37.6l-.009.009a8.713,8.713,0,0,0-3.008-1.066l-.719-.113-1-.156a2.593,2.593,0,0,1-2.2-2.566v-.026A5.893,5.893,0,0,0,36.6,28.318V24.668l-1.266-.251a7.6,7.6,0,0,1-4.8-3.216Z" transform="translate(-21 -16)" fill="#656d78"/>
        </g>
        <g id="Grupo_1142883" data-name="Grupo 1142883" transform="translate(8.668 13.869)">
          <path id="Trazado_922130" data-name="Trazado 922130" d="M17.2,18.087v.78a2.6,2.6,0,0,1-5.2,0v-.78A4.085,4.085,0,0,1,12.867,18h3.467a4.085,4.085,0,0,1,.867.087Z" transform="translate(-12 -18)" fill="#f0d0b4"/>
        </g>
        <g id="Grupo_1142884" data-name="Grupo 1142884" transform="translate(6.935 8.668)">
          <path id="Trazado_922131" data-name="Trazado 922131" d="M18.582,12a4.085,4.085,0,0,1,.087.867,4.334,4.334,0,1,1-8.668,0A4.085,4.085,0,0,1,10.087,12Z" transform="translate(-10 -12)" fill="#f0d0b4"/>
        </g>
        <g id="Grupo_1142885" data-name="Grupo 1142885" transform="translate(23.404 8.668)">
          <path id="Trazado_922132" data-name="Trazado 922132" d="M34.2,12.087v.78a2.6,2.6,0,1,1-5.2,0v-.78A4.085,4.085,0,0,1,29.867,12h3.467A4.085,4.085,0,0,1,34.2,12.087Z" transform="translate(-29 -12)" fill="#f0d0b4"/>
        </g>
        <g id="Grupo_1142886" data-name="Grupo 1142886" transform="translate(21.671 3.467)">
          <path id="Trazado_922133" data-name="Trazado 922133" d="M35.582,6a4.085,4.085,0,0,1,.087.867,4.334,4.334,0,0,1-8.668,0A4.085,4.085,0,0,1,27.087,6Z" transform="translate(-27 -6)" fill="#f0d0b4"/>
        </g>
        <g id="Grupo_1142887" data-name="Grupo 1142887" transform="translate(38.14 13.869)">
          <path id="Trazado_922134" data-name="Trazado 922134" d="M51.2,18.087v.78a2.6,2.6,0,0,1-5.2,0v-.78A4.085,4.085,0,0,1,46.867,18h3.467a4.085,4.085,0,0,1,.867.087Z" transform="translate(-46 -18)" fill="#f0d0b4"/>
        </g>
        <g id="Grupo_1142888" data-name="Grupo 1142888" transform="translate(36.407 8.668)">
          <path id="Trazado_922135" data-name="Trazado 922135" d="M52.582,13.734A4.335,4.335,0,0,1,44,12.867,4.085,4.085,0,0,1,44.087,12h8.495a4.377,4.377,0,0,1,0,1.734Z" transform="translate(-44 -12)" fill="#f0d0b4"/>
        </g>
        <g id="Grupo_1142889" data-name="Grupo 1142889" transform="translate(39.007 31.561)">
          <path id="Trazado_922136" data-name="Trazado 922136" d="M49.6,38.921a4.252,4.252,0,0,0,2.037-.511l.563,2.245-2.6,1.734L47,40.655l.563-2.245Z" transform="translate(-47 -38.41)" fill="#f0d0b4"/>
        </g>
        <g id="Grupo_1142890" data-name="Grupo 1142890" transform="translate(37.274 22.598)">
          <path id="Trazado_922137" data-name="Trazado 922137" d="M48.207,28.07a2.961,2.961,0,0,0,1.968,1.17l2,.286a1.742,1.742,0,0,1,1.491,1.716V33.21a4.085,4.085,0,0,1-.087.867,4.319,4.319,0,0,1-2.21,2.956,4.252,4.252,0,0,1-2.037.511L47.3,37.033a4.211,4.211,0,0,1-1.032-.754,4.374,4.374,0,0,1-1.179-2.2A4.085,4.085,0,0,1,45,33.21v-1.63a3.475,3.475,0,0,1,2.626-3.363l.572-.139Z" transform="translate(-45 -28.07)" fill="#f0d0b4"/>
        </g>
        <g id="Grupo_1142891" data-name="Grupo 1142891" transform="translate(7.801 31.561)">
          <path id="Trazado_922138" data-name="Trazado 922138" d="M16.2,40.655l-2.6,1.734L11,40.655l.563-2.245a4.252,4.252,0,0,0,2.037.511l2.037-.511Z" transform="translate(-11 -38.41)" fill="#f0d0b4"/>
        </g>
        <g id="Grupo_1142892" data-name="Grupo 1142892" transform="translate(6.068 22.598)">
          <path id="Trazado_922139" data-name="Trazado 922139" d="M15.042,28.217a3.475,3.475,0,0,1,2.626,3.363v1.63a4.085,4.085,0,0,1-.087.867,4.374,4.374,0,0,1-1.179,2.2,4.211,4.211,0,0,1-1.032.754l-2.037.511a4.252,4.252,0,0,1-2.037-.511,4.319,4.319,0,0,1-2.21-2.956A4.085,4.085,0,0,1,9,33.21V31.243a1.742,1.742,0,0,1,1.491-1.716l2-.286a2.961,2.961,0,0,0,1.968-1.17l.009.009Z" transform="translate(-9 -28.07)" fill="#f0d0b4"/>
        </g>
        <g id="Grupo_1142893" data-name="Grupo 1142893" transform="translate(20.206 29.749)">
          <path id="Trazado_922140" data-name="Trazado 922140" d="M36.908,39.137l-2.531,4.707H27.841L25.31,39.137l1-.156a2.593,2.593,0,0,0,2.2-2.566v-.1a6.047,6.047,0,0,0,2.626.589h.156a5.8,5.8,0,0,0,2.418-.52v.026a2.593,2.593,0,0,0,2.2,2.566Z" transform="translate(-25.31 -36.32)" fill="#f0d0b4"/>
        </g>
        <g id="Grupo_1142894" data-name="Grupo 1142894" transform="translate(19.937 17.337)">
          <path id="Trazado_922141" data-name="Trazado 922141" d="M37.136,25.467v3.649a5.893,5.893,0,0,1-3.467,5.366A5.8,5.8,0,0,1,31.25,35h-.156A6.079,6.079,0,0,1,25,28.935V25.467l1.266-.251A7.569,7.569,0,0,0,31.068,22a7.6,7.6,0,0,0,4.8,3.216Z" transform="translate(-25 -22)" fill="#f0d0b4"/>
        </g>
      </g>
      <g id="Grupo_1142896" data-name="Grupo 1142896">
        <path id="Trazado_922142" data-name="Trazado 922142" d="M52.012,36.658a6.884,6.884,0,0,0-2.759-1.233l-2.47-.494-.277-1.108A5.21,5.21,0,0,0,48.5,30.93l.44-.42a7.531,7.531,0,0,0,2.338-5.454,6.685,6.685,0,0,0-1.734-4.489v-.5a5.2,5.2,0,0,0-3.393-4.87,5.209,5.209,0,0,0,1.377-2.124,4.325,4.325,0,1,0-4.1-6.8A5.191,5.191,0,0,0,39.064,15.2a5.17,5.17,0,0,0-2.717,2.329,10.5,10.5,0,0,0-1.54-1.722v-.937A5.2,5.2,0,0,0,31.413,10a5.2,5.2,0,1,0-7.084,0,5.2,5.2,0,0,0-3.393,4.87v.937a10.491,10.491,0,0,0-1.54,1.721A5.175,5.175,0,0,0,16.678,15.2a5.2,5.2,0,1,0-7.085,0,5.212,5.212,0,0,0-3.1,3.206,2.6,2.6,0,0,0-2.023,2.531v4.119A7.534,7.534,0,0,0,6.8,30.509l.441.42a5.213,5.213,0,0,0,1.992,2.893L8.961,34.93l-2.47.494A6.831,6.831,0,0,0,1,42.121V54.743H54.743V42.121a6.866,6.866,0,0,0-2.731-5.464Zm-34.72-5.727.178-.17v4.351c-.078.05-.159.1-.235.15l-1.658-.331L15.3,33.823a5.213,5.213,0,0,0,1.992-2.893Zm-2.241,5.663.546.109a9.309,9.309,0,0,0-.793,1l-.811-.406Zm-3.024,3.414L11.6,38.713l.674-.337,1.691.845q-.17.385-.307.785H12.027Zm-2-.511.437,1.312-.248.5-.807-1.5Zm1.909,2.245h1.3a9.763,9.763,0,0,0-.1,1.369V43.5l-.867,1.61L11.223,43.17Zm1.2,5.419.179-.333a1.73,1.73,0,0,0,1.554.981v5.2H13.136Zm3.467.648h2.1a10.741,10.741,0,0,0,.391,1.2l.973,2.431V53.01H16.6Zm4.1.558a8.91,8.91,0,0,1-.181-6.122l.366-1.1L19.248,40.6l-.367,1.1a10.648,10.648,0,0,0-.545,3.364q0,.511.049,1.015H14.869V43.11A7.761,7.761,0,0,1,21.485,35.4l.111-.017L27,45.427V53.01H21.8v-1.9ZM27.872,20.62A8.349,8.349,0,0,0,32.5,23.267l.573.114v2.938a5.025,5.025,0,0,1-5.019,5.02H27.9a5.222,5.222,0,0,1-5.23-5.2V23.381l.573-.114a8.349,8.349,0,0,0,4.628-2.647ZM25.957,32.793a6.99,6.99,0,0,0,1.944.28h.153a6.744,6.744,0,0,0,1.745-.237,3.431,3.431,0,0,0,2.54,2.249l-1.717,3.189h-5.5L23.4,35.084a3.427,3.427,0,0,0,2.552-2.292ZM27.872,43.38l-1.816-3.373h3.632Zm.867,2.047,5.41-10.046.111.017a7.759,7.759,0,0,1,6.615,7.71v2.965H37.359q.047-.5.048-1.015a10.624,10.624,0,0,0-.546-3.364l-.366-1.1-1.643.549.365,1.1a8.9,8.9,0,0,1-.18,6.123l-1.1,2.743v1.9h-5.2Zm9.535-14.667.178.169a5.213,5.213,0,0,0,1.992,2.893l-.277,1.108-1.658.331c-.076-.053-.157-.1-.235-.15Zm5.443,9.246H42.09q-.137-.4-.307-.785l1.691-.846.674.337Zm-2.777-2.3a9.528,9.528,0,0,0-.793-1l.546-.109,1.059.706ZM35.673,51.442l.973-2.431a10.509,10.509,0,0,0,.391-1.2h2.1v5.2H35.673Zm5.2-3.634a1.73,1.73,0,0,0,1.554-.981l.179.333V53.01H40.874Zm2.6-2.7-.867-1.61V43.11a9.633,9.633,0,0,0-.106-1.369h1.3l.715,1.43ZM45.525,41.3l-.248-.5.437-1.312.618.309Zm2.361-4.384-.732,1.358L45.2,37.3l1.059-.706Zm-2.8-1.629-1.611,1.074L41.863,35.29l.173-.691a5.1,5.1,0,0,0,2.878,0Zm1.856-5.686a3.467,3.467,0,1,1-6.935,0V27.978a2.6,2.6,0,0,1,1.97-2.522l.071-.018A3.843,3.843,0,0,0,44.192,26.5l2,.287a.87.87,0,0,1,.745.857Zm2.3-2.715a5.8,5.8,0,0,1-.57,1.207v-.456a2.612,2.612,0,0,0-2.232-2.574l-2-.287a2.141,2.141,0,0,1-1.831-2.11H40.874a3.829,3.829,0,0,0,.21,1.25,4.328,4.328,0,0,0-2.81,4.058V23.537a10.383,10.383,0,0,0-.07-1.167,5,5,0,0,1,4.189-2.3h2.164a4.992,4.992,0,0,1,4.986,4.986,5.778,5.778,0,0,1-.3,1.834ZM44.341,16.6a1.734,1.734,0,1,1-3.467,0Zm3.311,2.5a6.663,6.663,0,0,0-2.1-.68,3.428,3.428,0,0,0,.48-1.358A3.459,3.459,0,0,1,47.653,19.1Zm-5.045-4.229A3.471,3.471,0,0,1,39.14,11.4h6.935A3.471,3.471,0,0,1,42.608,14.869ZM46.942,6.2a2.588,2.588,0,0,1,.858,5.034A5.2,5.2,0,0,0,45.184,6.89,2.587,2.587,0,0,1,46.942,6.2ZM42.608,7.935a3.456,3.456,0,0,1,2.985,1.734h-5.97A3.454,3.454,0,0,1,42.608,7.935ZM39.185,17.05a3.433,3.433,0,0,0,.767,1.756,6.767,6.767,0,0,0-2.227,1.426c-.081-.243-.165-.484-.264-.718A3.443,3.443,0,0,1,39.185,17.05Zm-6.148-2.529a10.338,10.338,0,0,0-2.434-1.01,3.426,3.426,0,0,0,.689-1.653A3.451,3.451,0,0,1,33.037,14.522Zm-6.9-3.12h3.467a1.734,1.734,0,1,1-3.467,0Zm1.734-1.734A3.471,3.471,0,0,1,24.4,6.2h6.935A3.471,3.471,0,0,1,27.872,9.668Zm0-6.935a3.456,3.456,0,0,1,2.985,1.734h-5.97A3.454,3.454,0,0,1,27.872,2.734ZM24.45,11.859a3.426,3.426,0,0,0,.689,1.653,10.338,10.338,0,0,0-2.434,1.01A3.453,3.453,0,0,1,24.45,11.859Zm3.421,3.01a8.678,8.678,0,0,1,8.668,8.668V34.231a9.662,9.662,0,0,0-2.017-.546l-1.714-.264a1.72,1.72,0,0,1-1.4-1.25,6.752,6.752,0,0,0,3.4-5.853V21.96l-1.967-.394a6.62,6.62,0,0,1-4.1-2.647V16.6H27v2.316a6.625,6.625,0,0,1-4.1,2.647l-1.966.394v4.176a6.927,6.927,0,0,0,3.42,5.959,1.72,1.72,0,0,1-1.422,1.326l-1.714.264a9.662,9.662,0,0,0-2.017.546V23.537a8.678,8.678,0,0,1,8.668-8.668ZM18.28,19.515c-.062.146-.108.3-.164.446a6.1,6.1,0,0,0-2.206-1.3,3.428,3.428,0,0,0,.647-1.611,3.437,3.437,0,0,1,1.723,2.465ZM11.4,16.6h3.467a1.734,1.734,0,1,1-3.467,0Zm1.734-1.734A3.471,3.471,0,0,1,9.668,11.4H16.6A3.471,3.471,0,0,1,13.136,14.869Zm0-6.935a3.456,3.456,0,0,1,2.985,1.734h-5.97A3.454,3.454,0,0,1,13.136,7.935ZM9.713,17.047a3.424,3.424,0,0,0,.438,1.29H8.405A3.479,3.479,0,0,1,9.713,17.047ZM6.5,26.889a5.769,5.769,0,0,1-.3-1.833V20.937a.868.868,0,0,1,.867-.867H14A4.349,4.349,0,0,1,17.6,22a10.478,10.478,0,0,0-.127,1.539v4.441a4.327,4.327,0,0,0-2.81-4.058,3.829,3.829,0,0,0,.21-1.25H13.136a2.143,2.143,0,0,1-1.83,2.111l-2,.287a2.611,2.611,0,0,0-2.233,2.573V28.1A5.8,5.8,0,0,1,6.5,26.889Zm2.3.752a.871.871,0,0,1,.744-.858l2-.287a3.852,3.852,0,0,0,2.144-1.059l.072.018a2.6,2.6,0,0,1,1.97,2.523v1.627a3.467,3.467,0,1,1-6.935,0Zm3.467,7.165a5.16,5.16,0,0,0,1.439-.207l.172.691-1.611,1.075L10.657,35.29l.172-.691A5.16,5.16,0,0,0,12.269,34.806ZM9.486,36.594l1.059.706-1.956.979L7.857,36.92ZM2.734,42.121A5.059,5.059,0,0,1,6.11,37.332L11.4,47.161V53.01H6.2V43.474H4.467V53.01H2.734ZM53.01,53.01H51.276V43.474H49.542V53.01h-5.2V47.161l5.292-9.828a5.055,5.055,0,0,1,3.376,4.788Z" transform="translate(-1 -1)"/>
        <path id="Trazado_922143" data-name="Trazado 922143" d="M31.481,33.541a3.651,3.651,0,0,0,3.284-2.03l.091-.183-1.551-.776-.091.184a1.938,1.938,0,0,1-3.467,0l-.091-.183-1.551.776.091.182A3.651,3.651,0,0,0,31.481,33.541Z" transform="translate(-4.61 -4.936)"/>
      </g>
    </g>
  </g>
</svg>
