<svg xmlns="http://www.w3.org/2000/svg" xmlns:xlink="http://www.w3.org/1999/xlink" width="116.36" height="116.36" viewBox="0 0 116.36 116.36">
  <defs>
    <filter id="Trazado_920741" x="0" y="0" width="116.36" height="116.36" filterUnits="userSpaceOnUse">
      <feOffset dy="3" input="SourceAlpha"/>
      <feGaussianBlur stdDeviation="3" result="blur"/>
      <feFlood flood-opacity="0.161"/>
      <feComposite operator="in" in2="blur"/>
      <feComposite in="SourceGraphic"/>
    </filter>
  </defs>
  <g id="Grupo_1142898" data-name="Grupo 1142898" transform="translate(-1115.22 -1875.091)">
    <g transform="matrix(1, 0, 0, 1, 1115.22, 1875.09)" filter="url(#Trazado_920741)">
      <g id="Trazado_920741-2" data-name="Trazado 920741" transform="translate(9 6)" fill="#fff">
        <path d="M 49.18003845214844 96.35993957519531 C 42.80988311767578 96.35993957519531 36.63134002685547 95.11278533935547 30.8160400390625 92.65312957763672 C 25.19811058044434 90.27693939208984 20.15226745605469 86.87480926513672 15.81869602203369 82.54124450683594 C 11.4851245880127 78.20767211914062 8.082996368408203 73.16184234619141 5.70681095123291 67.54393005371094 C 3.247153520584106 61.72864151000977 1.999996542930603 55.55011367797852 1.999996542930603 49.17996978759766 C 1.999996542930603 42.8098258972168 3.247153520584106 36.63131332397461 5.70681095123291 30.81601333618164 C 8.082982063293457 25.19809913635254 11.48511123657227 20.15226936340332 15.81868267059326 15.81869792938232 C 20.15225410461426 11.48512649536133 25.19808197021484 8.082998275756836 30.81599617004395 5.706812858581543 C 36.63129806518555 3.247155427932739 42.8098258972168 1.999998331069946 49.17995452880859 1.999998331069946 C 55.55010986328125 1.999998331069946 61.72865295410156 3.247155427932739 67.54395294189453 5.706812858581543 C 73.16188049316406 8.082998275756836 78.20772552490234 11.48512649536133 82.54129791259766 15.81869792938232 C 86.87487030029297 20.15226936340332 90.27699279785156 25.19809913635254 92.65318298339844 30.81601333618164 C 95.11283874511719 36.63129806518555 96.35999298095703 42.8098258972168 96.35999298095703 49.17996978759766 C 96.35999298095703 55.55011367797852 95.11283874511719 61.7286262512207 92.65318298339844 67.54393005371094 C 90.27700805664062 73.16184234619141 86.87488555908203 78.20767211914062 82.54131317138672 82.54124450683594 C 78.20774078369141 86.87480926513672 73.16191101074219 90.27693939208984 67.54399871826172 92.65312957763672 C 61.72869491577148 95.11278533935547 55.55016708374023 96.35993957519531 49.18003845214844 96.35993957519531 Z" stroke="none"/>
        <path d="M 49.17996215820312 4 C 43.07894515991211 4 37.16254806518555 5.194000244140625 31.59511566162109 7.548820495605469 C 26.215576171875 9.824172973632812 21.38344573974609 13.08236694335938 17.23289489746094 17.23290252685547 C 13.08236694335938 21.38345336914062 9.824165344238281 26.21558380126953 7.548812866210938 31.59512329101562 C 5.194000244140625 37.16255187988281 4 43.07895278930664 4 49.17996978759766 C 4 55.28098678588867 5.194000244140625 61.1973876953125 7.548812866210938 66.76481628417969 C 9.824165344238281 72.14435577392578 13.08236694335938 76.97648620605469 17.23291015625 81.12703704833984 C 21.38346099853516 85.27757263183594 26.21561431884766 88.5357666015625 31.59514617919922 90.81111907958984 C 37.16257858276367 93.16593933105469 43.07901382446289 94.35993957519531 49.18004608154297 94.35993957519531 C 55.28106307983398 94.35993957519531 61.19746398925781 93.16593933105469 66.764892578125 90.81111907958984 C 72.1444091796875 88.5357666015625 76.97654724121094 85.27757263183594 81.12709808349609 81.12703704833984 C 85.27763366699219 76.97648620605469 88.53582763671875 72.14435577392578 90.81118011474609 66.76481628417969 C 93.16600036621094 61.1973876953125 94.35999298095703 55.28098678588867 94.35999298095703 49.17996978759766 C 94.35999298095703 43.07895278930664 93.16600036621094 37.16255187988281 90.81118011474609 31.59512329101562 C 88.53582763671875 26.21558380126953 85.27763366699219 21.38345336914062 81.1270751953125 17.23290252685547 C 76.97654724121094 13.08236694335938 72.14439392089844 9.824172973632812 66.76486206054688 7.548820495605469 C 61.19741439819336 5.194000244140625 55.28099822998047 4 49.17996215820312 4 M 49.17996215820312 0 L 49.18004608154297 0 C 76.34137725830078 0 98.35999298095703 22.01862335205078 98.35999298095703 49.17996978759766 C 98.35999298095703 76.34132385253906 76.34137725830078 98.35993957519531 49.18004608154297 98.35993957519531 L 49.17996215820312 98.35993957519531 C 22.01861572265625 98.35993957519531 0 76.34132385253906 0 49.17996978759766 C 0 22.01862335205078 22.01861572265625 0 49.17996215820312 0 Z" stroke="none" fill="#f3d02c"/>
      </g>
    </g>
    <g id="cambio-climatico_1_" data-name="cambio-climatico (1)" transform="translate(1146.776 1900.827)">
      <path id="Trazado_922156" data-name="Trazado 922156" d="M320.039,325.051a4.584,4.584,0,0,0-.614.042.218.218,0,0,1-.225-.127,6.516,6.516,0,0,0-12.328,1.764.217.217,0,0,1-.244.181,3.638,3.638,0,1,0-.467,7.244h13.878a4.552,4.552,0,1,0,0-9.1Z" transform="translate(-269.374 -286.055)" fill="#f3f3f3"/>
      <path id="Trazado_922157" data-name="Trazado 922157" d="M394.553,325.051a4.583,4.583,0,0,0-.614.042.218.218,0,0,1-.225-.127,6.527,6.527,0,0,0-7.537-3.525,6.508,6.508,0,0,1,4.251,3.525.218.218,0,0,0,.225.127,4.554,4.554,0,1,1,.614,9.062h3.285a4.552,4.552,0,1,0,0-9.1Z" transform="translate(-343.887 -286.055)" fill="#e4e4e4"/>
      <path id="Trazado_922158" data-name="Trazado 922158" d="M53.5,11.319a4.585,4.585,0,0,0-.614.042.218.218,0,0,1-.225-.126A6.516,6.516,0,0,0,40.332,13a.217.217,0,0,1-.244.181,3.638,3.638,0,1,0-.467,7.244H53.5a4.552,4.552,0,1,0,0-9.1Z" transform="translate(-32.022 -6.679)" fill="#f3f3f3"/>
      <path id="Trazado_922159" data-name="Trazado 922159" d="M128.014,11.319a4.585,4.585,0,0,0-.614.042.218.218,0,0,1-.225-.126,6.527,6.527,0,0,0-7.537-3.525,6.508,6.508,0,0,1,4.251,3.525.218.218,0,0,0,.225.126,4.554,4.554,0,1,1,.614,9.062h3.285a4.552,4.552,0,1,0,0-9.1Z" transform="translate(-106.537 -6.679)" fill="#e4e4e4"/>
      <g id="Grupo_1142902" data-name="Grupo 1142902" transform="translate(3.779 3.395)">
        <circle id="Elipse_11690" data-name="Elipse 11690" cx="24.255" cy="24.255" r="24.255" transform="translate(0 0.384)" fill="#29b6f6"/>
        <path id="Trazado_922160" data-name="Trazado 922160" d="M242.643,31c-.552,0-1.1.02-1.643.056a24.638,24.638,0,0,1,0,49.167c.543.036,1.09.056,1.643.056a24.639,24.639,0,1,0,0-49.279Z" transform="translate(-218.387 -31)" fill="#03a9f4"/>
        <path id="Trazado_922161" data-name="Trazado 922161" d="M221.761,337.234c-1.475,2.451-1.387,2.369-1.57,2.451-1.831.821-1.917.791-1.982,1.1-.222,1.063-.418,2.89-1.2,3.845a24.614,24.614,0,0,1-5.727.67q-.466,0-.928-.016a.9.9,0,0,0,.054-.335l-.925-5.815c-.1-.645-1.927-.7-2.2-1.2-1.34-2.439-1.257-2.255-1.269-2.387-.252-2.671-.295-2.636-.154-2.832,1.131-1.58,1.1-1.492,1.108-1.669.1-1.735.035-1.92.333-2.085a2.876,2.876,0,0,1,2.256-.212s4.908.562,5.7,1.735c1.125,1.665.964,2.055,1.4,1.987,2.681-.431,2.576-.461,2.783-.313,2.218,1.587,2.273,1.546,2.284,1.855C221.834,337.214,221.859,337.071,221.761,337.234Z" transform="translate(-187.024 -296.017)" fill="#6de470"/>
        <g id="Grupo_1142900" data-name="Grupo 1142900" transform="translate(20.377 32.592)">
          <path id="Trazado_922162" data-name="Trazado 922162" d="M225.158,330.5c1.125,1.665.964,2.055,1.4,1.986,2.681-.431,2.576-.461,2.783-.313l.13.093a15.51,15.51,0,0,0-1.024-1.766c-.792-1.173-5.7-1.735-5.7-1.735a2.9,2.9,0,0,0-2.154.161C222.089,329.165,224.61,329.684,225.158,330.5Z" transform="translate(-220.589 -328.624)" fill="#4dcc68"/>
          <path id="Trazado_922163" data-name="Trazado 922163" d="M258.9,362.2c-.011-.309-.067-.268-2.284-1.855-.207-.148-.1-.118-2.783.313l-.055.006c1.776,1.263,1.826,1.249,1.837,1.536.115,3.2.139,3.061.042,3.224-1.475,2.451-1.387,2.369-1.57,2.451-1.831.821-1.917.791-1.982,1.1-.222,1.063-.418,2.89-1.2,3.845a24.4,24.4,0,0,1-3.343.554q-.012.047-.027.1.462.016.928.016a24.611,24.611,0,0,0,5.727-.67c.784-.955.98-2.781,1.2-3.845.065-.306.151-.275,1.982-1.1.183-.082.1,0,1.57-2.451C259.039,365.263,259.015,365.406,258.9,362.2Z" transform="translate(-244.581 -356.801)" fill="#4dcc68"/>
        </g>
        <path id="Trazado_922164" data-name="Trazado 922164" d="M90.679,42.125c-.4.853-3.279,1.135-3.566,3.37-.1.757.161,2.7-.506,3.352-1.246,1.213-1.1,2.241-1.735,3.151-.342.485-1.348.37-1.725.935-.2.3-.447,1.271-1.021,1.432a16.711,16.711,0,0,1-3.042-.116c-1.373.057-1.347,1.082-1.12,1.608.371.862,3.481,4.674,2.635,6.312-.658,1.274-2.005,1-3.443-.265-.641-.565-3.28-.528-4.156-2.235-.464-.9-.934-2.467-1.574-3.687s-3.375-2.822-3.638-3.158a11.3,11.3,0,0,1-1.535-3.558,19.832,19.832,0,0,1,.615-3.419l.778-2.213a6.744,6.744,0,0,0-.68-2.084A24.609,24.609,0,0,1,85.875,31.243a1.5,1.5,0,0,1-.339.975c-4.988,3.987-5,4.673-4.98,5.955.038,2.177.644,2.9,1.98,3.16.943.182,2.1.544,3.09-.871,2.521-3.609,3.128-3.331,3.7-3.332,1.813,0,1.76,4.14,1.355,4.995Z" transform="translate(-62.774 -31.216)" fill="#6de470"/>
        <g id="Grupo_1142901" data-name="Grupo 1142901" transform="translate(11.789 0.027)">
          <path id="Trazado_922165" data-name="Trazado 922165" d="M171.841,32.218c-4.988,3.987-5,4.673-4.98,5.955.038,2.177.644,2.9,1.98,3.16a2.819,2.819,0,0,0,2.514-.246c-.8-.4-1.178-1.213-1.208-2.915-.023-1.282-.008-1.968,4.98-5.955a1.5,1.5,0,0,0,.339-.975,24.7,24.7,0,0,0-3.34.385A1.136,1.136,0,0,1,171.841,32.218Z" transform="translate(-164.153 -31.243)" fill="#4dcc68"/>
          <path id="Trazado_922166" data-name="Trazado 922166" d="M193.553,84.966c-.415,0-.849-.144-2.019,1.156a6.833,6.833,0,0,1,.089,3.839c-.4.853-3.279,1.134-3.566,3.37-.1.757.161,2.7-.506,3.352-1.246,1.213-1.1,2.241-1.735,3.151-.342.485-1.348.37-1.725.935-.169.255-.378,1.007-.8,1.317h.018a16.711,16.711,0,0,0,3.042.116c.574-.161.824-1.136,1.021-1.432.377-.565,1.383-.45,1.725-.935.64-.91.488-1.937,1.735-3.151.667-.648.41-2.6.506-3.352.287-2.235,3.161-2.517,3.566-3.37S195.367,84.963,193.553,84.966Z" transform="translate(-178.791 -79.079)" fill="#4dcc68"/>
          <path id="Trazado_922167" data-name="Trazado 922167" d="M145.963,241.485c-.915.02-2.567-.164-2.567-.164-1.373.057-1.347,1.082-1.12,1.608.364.846,3.362,4.53,2.676,6.216,1.362,1.121,2.617,1.311,3.244.1.846-1.638-2.264-5.45-2.635-6.312a1.079,1.079,0,0,1,.4-1.443Z" transform="translate(-142.159 -218.316)" fill="#4dcc68"/>
        </g>
        <path id="Trazado_922168" data-name="Trazado 922168" d="M357.065,60.052a15.69,15.69,0,0,1-1.488,2.349,10.034,10.034,0,0,1-4.563,3.234c-.809.267-1.95-.752-2.035-1.652a14.573,14.573,0,0,0-.667-3.2,12.728,12.728,0,0,1,.005-3.374c.3-.817-1.39-2.432-1.416-3.3a6.624,6.624,0,0,1,.435-2.177A24.719,24.719,0,0,1,357.065,60.052Z" transform="translate(-312.691 -49.64)" fill="#f3f3f3"/>
        <path id="Trazado_922169" data-name="Trazado 922169" d="M355.677,62.648c.065-.081.129-.162.192-.247a15.69,15.69,0,0,0,1.488-2.349,24.718,24.718,0,0,0-9.729-8.12,8.249,8.249,0,0,0-.4,1.589A24.754,24.754,0,0,1,355.677,62.648Z" transform="translate(-312.983 -49.64)" fill="#e4e4e4"/>
        <path id="Trazado_922170" data-name="Trazado 922170" d="M77.693,167a15.5,15.5,0,0,0-6.177-1.528c-2.067.045-5.219,3.322-5.219,3.322a11.272,11.272,0,0,0,1.535,3.557c.263.336,3,1.937,3.638,3.158s1.11,2.784,1.574,3.688c.876,1.707,3.515,1.67,4.156,2.235,1.438,1.269,2.785,1.539,3.444.265.846-1.638-2.264-5.45-2.635-6.312-.227-.526-.253-1.551,1.12-1.607C79.128,173.774,80.3,168.5,77.693,167Z" transform="translate(-62.816 -150.742)" fill="#d67b42"/>
        <path id="Trazado_922171" data-name="Trazado 922171" d="M111.975,175.381c-.227-.526-.253-1.551,1.12-1.607,0,0,1.171-5.277-1.435-6.778a15.5,15.5,0,0,0-6.177-1.528,3.1,3.1,0,0,0-1.042.237A14.948,14.948,0,0,1,108.376,167c2.606,1.5,1.333,6.319,1.333,6.319-.11.477-.833,1.671-.606,2.2.365.846,2.951,4.4,2.263,6.086,1.362,1.121,2.617,1.31,3.245.1C115.457,180.055,112.347,176.243,111.975,175.381Z" transform="translate(-96.784 -150.742)" fill="#be652b"/>
      </g>
      <path id="Trazado_922172" data-name="Trazado 922172" d="M315.354,163.61c-10.744-13.484-28.276-1.119-21.232,11.152a9.033,9.033,0,0,0,9.734,4.209,8.137,8.137,0,0,0,5.292-3.876,6.929,6.929,0,0,0-1.222-8.492,5.209,5.209,0,0,0-6.627-.432,3.478,3.478,0,0,0-.177,5.653,1.646,1.646,0,0,0,1.9-2.684.533.533,0,0,1,.174-.28,1.953,1.953,0,0,1,2.483.147c1.46,1.2,1.247,3.2.583,4.518a4.934,4.934,0,0,1-3.235,2.255,5.823,5.823,0,0,1-6.153-2.8c-4.887-8.627,7.762-17.6,15.908-7.316A1.643,1.643,0,0,0,315.354,163.61Z" transform="translate(-260.469 -140.474)" fill="#bdf9ff"/>
      <path id="Trazado_922173" data-name="Trazado 922173" d="M25.039,390.319a4.584,4.584,0,0,0-.614.042.218.218,0,0,1-.225-.126A6.516,6.516,0,0,0,11.872,392a.217.217,0,0,1-.244.181,3.638,3.638,0,1,0-.467,7.244H25.039a4.552,4.552,0,1,0,0-9.1Z" transform="translate(-6.679 -344.176)" fill="#f3f3f3"/>
      <path id="Trazado_922174" data-name="Trazado 922174" d="M99.553,390.319a4.584,4.584,0,0,0-.614.042.218.218,0,0,1-.225-.126,6.527,6.527,0,0,0-7.537-3.525,6.508,6.508,0,0,1,4.251,3.525.218.218,0,0,0,.225.126,4.554,4.554,0,1,1,.614,9.062h3.285a4.552,4.552,0,1,0,0-9.1Z" transform="translate(-81.192 -344.176)" fill="#e4e4e4"/>
      <g id="Grupo_1142903" data-name="Grupo 1142903">
        <path id="Trazado_922175" data-name="Trazado 922175" d="M51.381,71.013a25.4,25.4,0,0,0,2.112-10.188c0-.466-.013-.935-.038-1.4a2.5,2.5,0,0,0,1.657-.535,2.442,2.442,0,0,0,.437-3.443l-.023-.03a18.4,18.4,0,0,0-3.638-3.506,25.534,25.534,0,0,0-15.2-15.036.821.821,0,0,0-.558,1.545q.654.236,1.295.512a6.048,6.048,0,0,0-.254,1.75A4.112,4.112,0,0,0,38,42.567a4.914,4.914,0,0,1,.619,1.159.81.81,0,0,0-.028.135,12.334,12.334,0,0,0,.027,3.717,13.857,13.857,0,0,1,.581,2.561,13.183,13.183,0,0,0-2.6,1.371,12.265,12.265,0,0,0-4.994,6.839,11.8,11.8,0,0,0,1.332,9.14l.023.037a10.1,10.1,0,0,0,8.427,4.823,9.3,9.3,0,0,0,2.189-.262l.021-.005a8.926,8.926,0,0,0,5.8-4.274l.011-.021a7.716,7.716,0,0,0-1.4-9.473,6.033,6.033,0,0,0-7.655-.5,4.56,4.56,0,0,0-1.894,3.726,3.939,3.939,0,0,0,1.73,3.278l.017.011a2.424,2.424,0,0,0,3.358-.608,2.457,2.457,0,0,0,.2-2.589.987.987,0,0,1,.876.277q.025.024.051.046a2.779,2.779,0,0,1,.379,3.5A4.165,4.165,0,0,1,42.358,67.3a5.017,5.017,0,0,1-5.248-2.433,6.8,6.8,0,0,1-.728-5.275,7.307,7.307,0,0,1,2.994-4.023c4.5-3.029,9.417-.718,12.3,2.917l.019.024.055.062c.07.746.105,1.5.105,2.254a23.861,23.861,0,0,1-16.59,22.7,17.75,17.75,0,0,0,.389-1.785c.028-.155.055-.3.082-.444.146-.07.383-.175.645-.29.241-.106.538-.236.913-.4s.412-.237,1.155-1.481c.194-.324.445-.745.774-1.292l.006-.01c.2-.322.2-.354.132-1.99-.016-.421-.037-.966-.063-1.676-.023-.651-.278-.831-1.5-1.7-.293-.207-.662-.467-1.126-.8l-.01-.007c-.429-.308-.615-.278-2.06-.039l-.976.16a13.859,13.859,0,0,0-.932-1.579c-.292-.432-.988-1.073-3.654-1.65-1.2-.26-2.309-.4-2.575-.434a3.637,3.637,0,0,0-2.806.3c-.639.355-.662.839-.711,1.9-.01.209-.021.457-.037.75-.075.11-.22.312-.4.566-.144.2-.327.454-.559.777-.288.4-.271.582-.133,1.969.036.359.081.821.137,1.408.015.262.015.262.65,1.412.176.319.409.742.718,1.3a2.3,2.3,0,0,0,1.49.886,5.678,5.678,0,0,1,.645.226l.791,4.97a23.9,23.9,0,0,1-2.535-.325,5.374,5.374,0,0,0-5.348-6.138q-.143,0-.288.008A7.352,7.352,0,0,0,8.79,74.862c-.425-.581-.824-1.183-1.193-1.8a.821.821,0,1,0-1.408.846c.359.6.746,1.186,1.156,1.757q-.269.192-.52.41a7.28,7.28,0,0,0-2.339,3.867h0a4.458,4.458,0,1,0,0,8.916H18.36a5.412,5.412,0,0,0,4.861-3.028,25.638,25.638,0,0,0,4.813.455A25.274,25.274,0,0,0,42.6,81.712h2.915a.821.821,0,0,0,0-1.643h-.814q.683-.594,1.33-1.241a25.536,25.536,0,0,0,4.58-6.22h.047a3.731,3.731,0,1,1,0,7.461h-1.6a.821.821,0,1,0,0,1.643h1.6a5.371,5.371,0,0,0,.717-10.7ZM48.206,48.164a24.018,24.018,0,0,1,1.3,2.341,13.53,13.53,0,0,0-2.35-.847q.088-.111.171-.223C47.538,49.145,47.864,48.7,48.206,48.164Zm-8.024-1.08a11.136,11.136,0,0,1,.029-2.958,3.325,3.325,0,0,0-.829-2.441,4.842,4.842,0,0,1-.573-1.054,3.94,3.94,0,0,1,.124-.984,23.818,23.818,0,0,1,8.252,7.024A16.293,16.293,0,0,1,46,48.459a6.962,6.962,0,0,1-.751.855,12.872,12.872,0,0,0-4.467.316,15.783,15.783,0,0,0-.6-2.546Zm5.3,5.6a9.668,9.668,0,0,0-7.022,1.517A8.949,8.949,0,0,0,34.8,59.144a8.414,8.414,0,0,0,.891,6.552l.024.04a6.637,6.637,0,0,0,7.03,3.159l.029-.007a5.707,5.707,0,0,0,3.735-2.646l.017-.033a4.457,4.457,0,0,0-.77-5.5,2.773,2.773,0,0,0-3.48-.22.8.8,0,0,0-.09.069,1.362,1.362,0,0,0-.438.734.821.821,0,0,0,.291.8.811.811,0,0,1,.192,1.169.777.777,0,0,1-1.131.188,2.306,2.306,0,0,1-1-1.928A2.892,2.892,0,0,1,41.3,59.163a4.4,4.4,0,0,1,5.593.35l.025.023a6.1,6.1,0,0,1,1.039,7.49,7.346,7.346,0,0,1-4.77,3.466,7.686,7.686,0,0,1-4.9-.433,9.014,9.014,0,0,1-3.929-3.408,10.183,10.183,0,0,1-1.162-7.868,10.622,10.622,0,0,1,4.333-5.915C42,49.826,48.9,49.747,54.229,56.422A.807.807,0,0,1,54.1,57.6a.789.789,0,0,1-1.148-.145,12.229,12.229,0,0,0-7.468-4.764ZM18.36,87.217H4.482a2.816,2.816,0,1,1,.363-5.608,1.044,1.044,0,0,0,1.161-.874A5.694,5.694,0,0,1,16.777,79.2a1.035,1.035,0,0,0,1.078.592,3.732,3.732,0,1,1,.5,7.427Zm9.557-2.574-.871-5.473c-.136-.861-1.035-1.137-1.757-1.359a5.275,5.275,0,0,1-.586-.2c-.283-.515-.5-.908-.666-1.209-.239-.434-.392-.711-.459-.838-.053-.564-.1-1-.132-1.351-.043-.438-.078-.782-.088-.959l.478-.665c.619-.858.683-.948.7-1.314V71.26c.02-.349.033-.635.044-.872s.022-.473.035-.625a2.033,2.033,0,0,1,1.408-.072c.063.018.109.028.135.033l.054.008c.012,0,1.206.14,2.474.414,2.291.5,2.635.959,2.639.964a12.213,12.213,0,0,1,.841,1.428c.212.415.531,1.043,1.368.909.551-.089.985-.161,1.328-.217.435-.072.779-.129.965-.153.411.294.744.529,1.014.719.355.251.654.462.814.585.023.628.042,1.12.057,1.507.023.595.039,1,.039,1.184-.3.5-.537.9-.72,1.2-.251.421-.435.729-.529.875-.314.141-.574.255-.789.349-1.061.466-1.418.623-1.558,1.282-.042.2-.083.426-.126.663a8.547,8.547,0,0,1-.76,2.618,23.808,23.808,0,0,1-5.24.581Z" transform="translate(0 -32.791)"/>
        <path id="Trazado_922176" data-name="Trazado 922176" d="M25.477,37.889a.821.821,0,0,0,1.514-.636A23.829,23.829,0,0,1,28.713,15.5c.02.063.036.118.046.163l-.733,2.088h0a18.472,18.472,0,0,0-.659,3.768,11.679,11.679,0,0,0,1.706,3.986,4.973,4.973,0,0,0,.978.782,10.568,10.568,0,0,1,2.579,2.252,20.686,20.686,0,0,1,.886,2.063c.234.6.454,1.171.684,1.618.743,1.449,2.385,1.9,3.471,2.192a4.847,4.847,0,0,1,.878.289A4.364,4.364,0,0,0,41.288,36a2.148,2.148,0,0,0,1.972-1.276c.8-1.542-.5-3.753-2.025-6.073-.245-.374-.524-.8-.585-.941a.494.494,0,0,1-.031-.349c.015-.024.115-.091.374-.109a13.658,13.658,0,0,0,3.287.083,2.438,2.438,0,0,0,1.376-1.539c.035-.079.082-.185.105-.227a1.893,1.893,0,0,1,.471-.181,2.132,2.132,0,0,0,1.243-.739,5.019,5.019,0,0,0,.614-1.305,3.889,3.889,0,0,1,1.021-1.728c.732-.711.73-2.033.729-3.095,0-.3,0-.586.019-.742.119-.93.891-1.386,1.969-1.928a3,3,0,0,0,1.524-1.194,7.129,7.129,0,0,0-.39-5.161,2,2,0,0,0-1.705-1.007h0a.842.842,0,0,1-.088,0c-.979-.029-1.861.217-4.283,3.685-.581.831-1.1.77-2.044.578l-.218-.043c-.685-.132-1.277-.246-1.314-2.369-.017-.962-.028-1.542,4.668-5.3a1.7,1.7,0,0,0,.513-.82q.235,0,.472,0a23.993,23.993,0,0,1,4.792.482.821.821,0,0,0,.329-1.61,25.735,25.735,0,0,0-12.127.456,7.335,7.335,0,0,0-13.426,2.1h0a4.456,4.456,0,0,0-1.1,8.781,25.528,25.528,0,0,0-1.951,23.46Zm4.1-19.607c0,.015-.009.025-.011.031l.006-.016ZM41.407,32.17c.583,1.248.449,1.692.394,1.8-.172.334-.343.366-.408.378-.3.056-.927-.144-1.762-.882a3.788,3.788,0,0,0-1.527-.636c-.9-.247-2.029-.553-2.442-1.358-.191-.371-.4-.9-.614-1.462a22.19,22.19,0,0,0-.962-2.231A10.268,10.268,0,0,0,31,24.949c-.25-.177-.558-.4-.656-.481a11.973,11.973,0,0,1-1.266-2.755A19.47,19.47,0,0,1,30.713,20.3a5.221,5.221,0,0,1,2.709-1.358,14.731,14.731,0,0,1,5.75,1.418c.961.553,1.224,1.944,1.275,3.014a12.172,12.172,0,0,1-.136,2.334,1.815,1.815,0,0,0-1.082.777,2.062,2.062,0,0,0-.087,1.873,9.736,9.736,0,0,0,.72,1.192A22.484,22.484,0,0,1,41.407,32.17Zm.257-21.8c.043,2.454.81,3.6,2.646,3.952l.2.04a3.19,3.19,0,0,0,3.718-1.247c2.1-3.008,2.632-2.993,2.887-2.984l.14,0c.053,0,.162,0,.314.238a5.882,5.882,0,0,1,.307,3.56,4.492,4.492,0,0,1-.789.454c-1.043.525-2.62,1.318-2.86,3.187a8.029,8.029,0,0,0-.032.952c0,.462,0,1.688-.232,1.915A5.462,5.462,0,0,0,46.54,22.8a3.793,3.793,0,0,1-.39.879,2.528,2.528,0,0,1-.388.137,2.286,2.286,0,0,0-1.367.843,3.193,3.193,0,0,0-.24.474,2.7,2.7,0,0,1-.344.626,12.151,12.151,0,0,1-1.837-.062c.242-1.774.4-5.384-1.982-6.757a16.305,16.305,0,0,0-6.6-1.637,7.734,7.734,0,0,0-4.042,1.98c.094-.428.185-.807.239-1.007l.769-2.19c.169-.482-.017-1.021-.515-2.226l0-.005A23.827,23.827,0,0,1,46.181,4.377c-4.168,3.4-4.546,4.344-4.517,5.988Zm-15.979-.259a2.838,2.838,0,0,1,3.2-2.792,1.044,1.044,0,0,0,1.161-.874A5.7,5.7,0,0,1,40.334,4.065a25.376,25.376,0,0,0-9.378,5.966,25.815,25.815,0,0,0-2.493,2.89,2.83,2.83,0,0,1-2.778-2.815Z" transform="translate(-20.926 0)"/>
      </g>
    </g>
  </g>
</svg>
