<svg xmlns="http://www.w3.org/2000/svg" xmlns:xlink="http://www.w3.org/1999/xlink" width="116.36" height="116.36" viewBox="0 0 116.36 116.36">
  <defs>
    <filter id="Trazado_920741" x="0" y="0" width="116.36" height="116.36" filterUnits="userSpaceOnUse">
      <feOffset dy="3" input="SourceAlpha"/>
      <feGaussianBlur stdDeviation="3" result="blur"/>
      <feFlood flood-opacity="0.161"/>
      <feComposite operator="in" in2="blur"/>
      <feComposite in="SourceGraphic"/>
    </filter>
    <clipPath id="clip-path">
      <path id="path1011" d="M0-682.665H76.671v76.671H0Z" transform="translate(0 682.665)"/>
    </clipPath>
  </defs>
  <g id="Grupo_1142904" data-name="Grupo 1142904" transform="translate(-1115.22 -1875.091)">
    <g transform="matrix(1, 0, 0, 1, 1115.22, 1875.09)" filter="url(#Trazado_920741)">
      <g id="Trazado_920741-2" data-name="Trazado 920741" transform="translate(9 6)" fill="#fff">
        <path d="M 49.18003845214844 96.35993957519531 C 42.80988311767578 96.35993957519531 36.63134002685547 95.11278533935547 30.8160400390625 92.65312957763672 C 25.19811058044434 90.27693939208984 20.15226745605469 86.87480926513672 15.81869602203369 82.54124450683594 C 11.4851245880127 78.20767211914062 8.082996368408203 73.16184234619141 5.70681095123291 67.54393005371094 C 3.247153520584106 61.72864151000977 1.999996542930603 55.55011367797852 1.999996542930603 49.17996978759766 C 1.999996542930603 42.8098258972168 3.247153520584106 36.63131332397461 5.70681095123291 30.81601333618164 C 8.082982063293457 25.19809913635254 11.48511123657227 20.15226936340332 15.81868267059326 15.81869792938232 C 20.15225410461426 11.48512649536133 25.19808197021484 8.082998275756836 30.81599617004395 5.706812858581543 C 36.63129806518555 3.247155427932739 42.8098258972168 1.999998331069946 49.17995452880859 1.999998331069946 C 55.55010986328125 1.999998331069946 61.72865295410156 3.247155427932739 67.54395294189453 5.706812858581543 C 73.16188049316406 8.082998275756836 78.20772552490234 11.48512649536133 82.54129791259766 15.81869792938232 C 86.87487030029297 20.15226936340332 90.27699279785156 25.19809913635254 92.65318298339844 30.81601333618164 C 95.11283874511719 36.63129806518555 96.35999298095703 42.8098258972168 96.35999298095703 49.17996978759766 C 96.35999298095703 55.55011367797852 95.11283874511719 61.7286262512207 92.65318298339844 67.54393005371094 C 90.27700805664062 73.16184234619141 86.87488555908203 78.20767211914062 82.54131317138672 82.54124450683594 C 78.20774078369141 86.87480926513672 73.16191101074219 90.27693939208984 67.54399871826172 92.65312957763672 C 61.72869491577148 95.11278533935547 55.55016708374023 96.35993957519531 49.18003845214844 96.35993957519531 Z" stroke="none"/>
        <path d="M 49.17996215820312 4 C 43.07894515991211 4 37.16254806518555 5.194000244140625 31.59511566162109 7.548820495605469 C 26.215576171875 9.824172973632812 21.38344573974609 13.08236694335938 17.23289489746094 17.23290252685547 C 13.08236694335938 21.38345336914062 9.824165344238281 26.21558380126953 7.548812866210938 31.59512329101562 C 5.194000244140625 37.16255187988281 4 43.07895278930664 4 49.17996978759766 C 4 55.28098678588867 5.194000244140625 61.1973876953125 7.548812866210938 66.76481628417969 C 9.824165344238281 72.14435577392578 13.08236694335938 76.97648620605469 17.23291015625 81.12703704833984 C 21.38346099853516 85.27757263183594 26.21561431884766 88.5357666015625 31.59514617919922 90.81111907958984 C 37.16257858276367 93.16593933105469 43.07901382446289 94.35993957519531 49.18004608154297 94.35993957519531 C 55.28106307983398 94.35993957519531 61.19746398925781 93.16593933105469 66.764892578125 90.81111907958984 C 72.1444091796875 88.5357666015625 76.97654724121094 85.27757263183594 81.12709808349609 81.12703704833984 C 85.27763366699219 76.97648620605469 88.53582763671875 72.14435577392578 90.81118011474609 66.76481628417969 C 93.16600036621094 61.1973876953125 94.35999298095703 55.28098678588867 94.35999298095703 49.17996978759766 C 94.35999298095703 43.07895278930664 93.16600036621094 37.16255187988281 90.81118011474609 31.59512329101562 C 88.53582763671875 26.21558380126953 85.27763366699219 21.38345336914062 81.1270751953125 17.23290252685547 C 76.97654724121094 13.08236694335938 72.14439392089844 9.824172973632812 66.76486206054688 7.548820495605469 C 61.19741439819336 5.194000244140625 55.28099822998047 4 49.17996215820312 4 M 49.17996215820312 0 L 49.18004608154297 0 C 76.34137725830078 0 98.35999298095703 22.01862335205078 98.35999298095703 49.17996978759766 C 98.35999298095703 76.34132385253906 76.34137725830078 98.35993957519531 49.18004608154297 98.35993957519531 L 49.17996215820312 98.35993957519531 C 22.01861572265625 98.35993957519531 0 76.34132385253906 0 49.17996978759766 C 0 22.01862335205078 22.01861572265625 0 49.17996215820312 0 Z" stroke="none" fill="#f3d02c"/>
      </g>
    </g>
    <g id="g1005" transform="translate(1133.065 1891.936)">
      <g id="g1007">
        <g id="g1009" clip-path="url(#clip-path)">
          <g id="g1015" transform="translate(28.793 15.144)">
            <path id="path1017" d="M-71.015-178.909c2.077,0,8.762-7.426,8.979-13.289q.006-.146.006-.29a9.146,9.146,0,0,0-7.77-8.975,8.621,8.621,0,0,0-1.215-.081A9.106,9.106,0,0,0-80-192.488c0,5.9,6.873,13.579,8.985,13.579m2.995-13.579a3,3,0,0,1-2.995,2.995,3,3,0,0,1-2.995-2.995,3,3,0,0,1,2.995-2.995,3,3,0,0,1,2.995,2.995" transform="translate(80 201.544)" fill="#ff5a58" fill-rule="evenodd"/>
          </g>
          <g id="g1019" transform="translate(34.782 21.205)">
            <path id="path1021" d="M-23.672-47.343a3,3,0,0,0,2.995-2.995,3,3,0,0,0-2.995-2.995,3,3,0,0,0-2.995,2.995,3,3,0,0,0,2.995,2.995" transform="translate(26.667 53.333)" fill="#fff3db" fill-rule="evenodd"/>
          </g>
          <g id="g1023" transform="translate(11.381 1.497)">
            <path id="path1025" d="M-279.609-181.735c-.217,5.863-6.9,13.289-8.98,13.289-2.112,0-8.985-7.674-8.985-13.579a9.106,9.106,0,0,1,8.985-9.056,8.622,8.622,0,0,1,1.215.081c-.715-3.345,4.779-8.927,8.953-9.1,3.341-.142-.646-9.173-8.875-1.607-1.394,1.282-5.85,2.519-8.286,3.234-2.808.825-1.338,1.911-3.667,5.4-2.246,3.366-1.95.347-3.006,2.428-1.326,2.615-2.548,2.929-3.528,3-2.749.213-5.292,5.06-3.414,7.727,2.059,2.925.665,10.35.945,11.035,1.208,2.945-.562,8.137-3.348,8.3-4.751.282-1.429,2.375-2.995,3.324-1.476.895,1.653,3.682,2.189,3.661,3.352-.133,6.635,6.506,8.543,3.228.538-.925,9.457,2.786,9.624,4.157.358,2.926,2.216,1.2,2.178,2.495-.091,3.074,2.207,1.957,2.329,2.839.575,4.165,5.895,2.074,7.2,1.921,6.154-.719,3.305,8.5,7,7.87s1.718-5.107,2.271-8.849c.382-2.589,1.545-2.835.75-5.743-.509-1.86-1.477-2.38-.917-3.744.727-1.773,2.529-.995,3.2-2.287,1.153-2.223-1.441-4.138.189-5.115,3.23-1.935,5.116,3.322,8.155,1.52,2.614-1.55-2.062-6.284-.6-7.912,1.416-1.58-2.028-4.3-.622-6.4,2.965-4.421.891-6.465-2.068-6.774-2.354-.246-5.037-.087-5.591-.951-1.978-3.083-3.633-3.692-5.5-3.885a29.99,29.99,0,0,1-3.344-.515" transform="translate(314.985 204.728)" fill="#cbe558" fill-rule="evenodd"/>
          </g>
          <g id="g1027" transform="translate(11.381 1.497)">
            <path id="path1029" d="M-52.459-213.042a5.856,5.856,0,0,0-.848-2.141c-1.878-2.667.665-7.514,3.414-7.726.98-.076,2.2-.39,3.528-3,1.055-2.081.76.937,3.006-2.428,2.329-3.49.859-4.577,3.667-5.4,2.436-.715,6.892-1.953,8.286-3.235,8.229-7.567,12.215,1.465,8.875,1.607-4.1.174-9.465,5.554-8.986,8.916m7.959,9.488a30.68,30.68,0,0,0,3.182.479c1.863.193,3.518.8,5.5,3.885.554.864,3.237.705,5.591.951,2.959.309,5.033,2.353,2.068,6.774-1.406,2.1,2.038,4.817.622,6.4-1.46,1.628,3.216,6.363.6,7.912-3.039,1.8-4.925-3.455-8.155-1.52-1.63.976.964,2.891-.189,5.114-.67,1.292-2.472.515-3.2,2.287-.56,1.365.408,1.885.917,3.744.8,2.908-.367,3.153-.75,5.743-.553,3.742,1.421,8.222-2.271,8.849s-.844-8.589-7-7.87c-1.3.152-6.625,2.244-7.2-1.921-.122-.882-2.42.235-2.329-2.839.038-1.294-1.82.431-2.178-2.495-.168-1.37-9.086-5.082-9.624-4.157-1.908,3.278-5.191-3.361-8.542-3.228-.536.021-3.665-2.766-2.189-3.661,1.565-.949-1.757-3.042,2.995-3.324,1.557-.093,2.8-1.756,3.376-3.719" transform="translate(59.096 239.996)" fill="none" stroke="#000" stroke-linecap="round" stroke-linejoin="round" stroke-miterlimit="22.926" stroke-width="2"/>
          </g>
          <g id="g1031" transform="translate(28.793 15.144)">
            <path id="path1033" d="M-71.015-178.909c-2.112,0-8.985-7.674-8.985-13.579a9.106,9.106,0,0,1,8.985-9.056,9.106,9.106,0,0,1,8.985,9.056C-62.03-186.583-68.9-178.909-71.015-178.909Z" transform="translate(80 201.544)" fill="none" stroke="#000" stroke-linecap="round" stroke-linejoin="round" stroke-miterlimit="22.926" stroke-width="2"/>
          </g>
          <g id="g1035" transform="translate(34.782 21.205)">
            <path id="path1037" d="M-23.672-47.343a3,3,0,0,0,2.995-2.995,3,3,0,0,0-2.995-2.995,3,3,0,0,0-2.995,2.995A3,3,0,0,0-23.672-47.343Z" transform="translate(26.667 53.333)" fill="none" stroke="#000" stroke-linecap="round" stroke-linejoin="round" stroke-miterlimit="22.926" stroke-width="2"/>
          </g>
          <g id="g1039" transform="translate(18.178 35.19)">
            <path id="path1041" d="M0,0H0" fill="none" stroke="#000" stroke-linecap="round" stroke-linejoin="round" stroke-miterlimit="2.613" stroke-width="2"/>
          </g>
        </g>
      </g>
    </g>
  </g>
</svg>
