<svg xmlns="http://www.w3.org/2000/svg" width="52.673" height="50.432" viewBox="0 0 52.673 50.432">
  <path id="desafio_2_" data-name="desafio (2)" d="M30.417,29.388a3.019,3.019,0,0,0-3.994-1.5h0l-3.555,1.623-4.641-1.8a3.017,3.017,0,0,0-4.108,2.774c-.025,1.951-.152,10.21-.177,12.1L8.524,50.508a3.014,3.014,0,0,0,4.972,3.41l5.884-8.594a2.993,2.993,0,0,0,.485-1.019l.624.29.2,6.227a3.017,3.017,0,0,0,6.031-.2l-.255-8.08a3,3,0,0,0-1.743-2.635l-4.679-2.179.049-2.825,1.742.675a3.029,3.029,0,0,0,2.383-.05l4.708-2.148a3.02,3.02,0,0,0,1.5-3.994Zm-2.2,2.448-4.708,2.148a1.306,1.306,0,0,1-1.044.02L22.45,34l-2.883-1.117a.85.85,0,0,0-1.156.777l-.08,4.594a.85.85,0,0,0,.491.785L24,41.451a1.312,1.312,0,0,1,.762,1.15l.255,8.079a1.318,1.318,0,0,1-2.635.088l-.212-6.748a.85.85,0,0,0-.49-.743l-2.2-1.026a.85.85,0,0,0-1.208.759l-.007.551a1.306,1.306,0,0,1-.257.767l-.018.026-5.892,8.6a1.315,1.315,0,1,1-2.169-1.489l5.563-8.125a.849.849,0,0,0,.148-.469c.025-1.962.155-10.408.18-12.362A1.315,1.315,0,0,1,17.611,29.3l4.976,1.927a.85.85,0,0,0,.66-.019l3.88-1.771a1.317,1.317,0,1,1,1.089,2.4ZM60.281,41.6a.85.85,0,0,0-.808-.065l-8.758,3.879a.85.85,0,0,0-.449.472l-.905,2.352H41.669l-.905-2.352a.85.85,0,0,0-.478-.484q-.165-.066-.328-.136a.848.848,0,0,0-.68,0l-8.41,3.735a.849.849,0,0,0-.5.776V68.131a.85.85,0,0,0,.85.85H59.818a.85.85,0,0,0,.85-.85V42.316a.849.849,0,0,0-.386-.712ZM58.968,67.282H32.062V50.339L39.4,47.079l.892,2.317a.849.849,0,0,0,.793.544h8.86a.85.85,0,0,0,.793-.544l.988-2.567,7.242-3.208ZM27.324,54.215H20.1a.85.85,0,0,0-.85.85V68.131a.85.85,0,0,0,.85.85h7.228a.85.85,0,0,0,.85-.85V55.065A.85.85,0,0,0,27.324,54.215Zm-.85,13.066H20.945V55.915h5.529ZM16.207,59.176H8.978a.85.85,0,0,0-.85.85v8.105a.85.85,0,0,0,.85.85h7.228a.85.85,0,0,0,.85-.85V60.026A.85.85,0,0,0,16.207,59.176Zm-.85,8.105H9.828V60.875h5.529Zm17-32.432,1.722.663a11.792,11.792,0,0,0,1.091,2.633l-.75,1.688a.85.85,0,0,0,.176.946l2.461,2.461a.849.849,0,0,0,.946.176l1.688-.75a11.8,11.8,0,0,0,2.632,1.091l.663,1.723a.849.849,0,0,0,.793.544h3.48a.85.85,0,0,0,.793-.544l.663-1.722a11.79,11.79,0,0,0,2.633-1.091l1.688.75a.85.85,0,0,0,.946-.176l2.461-2.461a.85.85,0,0,0,.176-.946l-.75-1.688a11.789,11.789,0,0,0,1.091-2.632l1.723-.663a.849.849,0,0,0,.544-.793v-3.48a.85.85,0,0,0-.544-.793l-1.722-.663a11.792,11.792,0,0,0-1.091-2.633l.75-1.688a.85.85,0,0,0-.176-.946l-2.461-2.461a.849.849,0,0,0-.946-.176l-1.688.75a11.8,11.8,0,0,0-2.632-1.091l-.663-1.723a.849.849,0,0,0-.793-.544h-3.48a.85.85,0,0,0-.793.544l-.663,1.723a11.79,11.79,0,0,0-2.632,1.091L38,21.219a.849.849,0,0,0-.946.176l-2.461,2.461a.85.85,0,0,0-.176.946l.75,1.688a11.8,11.8,0,0,0-1.091,2.632l-1.723.663a.849.849,0,0,0-.544.793v3.48a.849.849,0,0,0,.544.793Zm1.155-3.689,1.586-.611a.849.849,0,0,0,.521-.6,10.114,10.114,0,0,1,1.229-2.964.85.85,0,0,0,.053-.79l-.69-1.554,1.636-1.636,1.555.69a.85.85,0,0,0,.79-.053,10.1,10.1,0,0,1,2.964-1.229.85.85,0,0,0,.6-.521l.611-1.586h2.313l.611,1.586a.85.85,0,0,0,.6.521,10.109,10.109,0,0,1,2.964,1.229.849.849,0,0,0,.79.053l1.555-.69,1.636,1.636-.69,1.554a.85.85,0,0,0,.053.79,10.1,10.1,0,0,1,1.229,2.965.849.849,0,0,0,.521.6l1.586.61v2.313l-1.586.611a.849.849,0,0,0-.521.6,10.108,10.108,0,0,1-1.229,2.964.85.85,0,0,0-.053.79l.691,1.555-1.636,1.636-1.554-.69a.849.849,0,0,0-.79.053,10.1,10.1,0,0,1-2.965,1.229.849.849,0,0,0-.6.521l-.61,1.586H44.359l-.611-1.586a.85.85,0,0,0-.6-.521,10.109,10.109,0,0,1-2.964-1.229.85.85,0,0,0-.79-.053l-1.555.69-1.636-1.636.69-1.554a.849.849,0,0,0-.053-.79,10.105,10.105,0,0,1-1.229-2.965.849.849,0,0,0-.521-.6l-1.586-.61ZM45.515,40.7a8.386,8.386,0,1,0-8.386-8.386A8.4,8.4,0,0,0,45.515,40.7Zm0-15.073a6.687,6.687,0,1,1-6.687,6.687,6.695,6.695,0,0,1,6.687-6.687Zm0,9.591a2.9,2.9,0,1,0-2.9-2.9A2.907,2.907,0,0,0,45.515,35.221Zm0-4.109a1.2,1.2,0,1,1-1.2,1.2A1.206,1.206,0,0,1,45.515,31.112ZM17.933,27.521a4.486,4.486,0,1,0-4.486-4.486A4.491,4.491,0,0,0,17.933,27.521Zm0-7.273a2.787,2.787,0,1,1-2.787,2.787A2.79,2.79,0,0,1,17.933,20.248Z" transform="translate(-7.995 -18.549)" fill="#12263f"/>
</svg>
